<svg xmlns="http://www.w3.org/2000/svg" viewBox="0 0 751 501"><defs><style>.cls-1{isolation:isolate;}.cls-2{fill:#e1bf2f;}.cls-3{fill:#b2b2b2;opacity:0.34;mix-blend-mode:darken;}.cls-4{fill:#e2e5f4;}.cls-5{fill:#fcfbff;}.cls-6{opacity:0.3;}.cls-7{fill:#b8c2e3;}.cls-8{fill:#b3c770;}.cls-9{fill:#7c924c;}.cls-10{fill:#536e59;}.cls-11{fill:#2c363e;}.cls-12{fill:#1f223f;}.cls-13{fill:#bbc3e1;}.cls-14{fill:#b14c88;}.cls-15{fill:#89376c;}.cls-16{fill:#e4cfcd;}.cls-17{fill:#1f213c;}.cls-18{fill:#0b001c;}.cls-19{fill:#c68820;}.cls-20{fill:#f8f8f8;}.cls-21{fill:#e1be2f;}.cls-22{fill:#252046;}.cls-23{opacity:0.55;}.cls-24{fill:#eee5f5;}.cls-25{fill:#72c3e3;}.cls-26{fill:#666;}</style></defs><title>Asset 3</title><g class="cls-1"><g id="Layer_2" data-name="Layer 2"><g id="BACKGROUND"><rect class="cls-2" width="751" height="501"/><rect class="cls-3" x="50.17" y="69.18" width="677.56" height="390.13"/></g><g id="OBJECTS"><rect class="cls-4" x="34.23" y="56.68" width="682.55" height="387.64"/><rect class="cls-5" x="34.23" y="56.68" width="268.13" height="387.64"/><path class="cls-7" d="M597.78,386.34c-30.93,0-56.9,3.09-64.18,7.28-9.27-.5-19.28-.77-29.72-.77-12.36,0-24.09.38-34.71,1.06-10.09-3.45-33.58-5.87-60.95-5.87-36.57,0-66.22,4.32-66.22,9.66s29.65,9.66,66.22,9.66c3.52,0,7,0,10.35-.12,6,6.09,41.92,10.76,85.31,10.76,47.21,0,85.54-5.54,86.17-12.4,2.54,0,5.11.06,7.73.06,36.57,0,66.22-4.32,66.22-9.66S634.35,386.34,597.78,386.34Z"/><path class="cls-8" d="M444.69,210C458.91,239.81,465,285.51,465,285.51S433.36,252,419.14,222.13c-7.38-15.48-5.46-26.17,1.6-29.53S437.29,194.43,444.69,210Z"/><path class="cls-9" d="M465,286.54a1,1,0,0,1-.92-.59L431.28,217.1a1,1,0,0,1,1.85-.88l32.8,68.85a1,1,0,0,1-.48,1.37A1.13,1.13,0,0,1,465,286.54Z"/><path class="cls-10" d="M437.76,258.18c15.29,19.9,27.05,52.85,27.05,52.85s-28.8-19.87-44.08-39.77c-7.92-10.32-8.19-18.56-3.49-22.17S429.81,247.83,437.76,258.18Z"/><path class="cls-11" d="M464.81,312.05a1,1,0,0,1-.81-.4l-35.25-45.89a1,1,0,1,1,1.63-1.25l35.24,45.9a1,1,0,0,1-.18,1.43A1.06,1.06,0,0,1,464.81,312.05Z"/><rect class="cls-12" x="451.49" y="134.9" width="124.81" height="263.2" rx="15.93"/><rect class="cls-4" x="456.91" y="164.23" width="113.98" height="200.17"/><path class="cls-4" d="M530,151.41H508.38a1,1,0,0,1,0-2H530a1,1,0,0,1,0,2Z"/><circle class="cls-4" cx="499.23" cy="150.38" r="1.43"/><circle class="cls-4" cx="513.89" cy="380.2" r="10.02" transform="translate(-118.32 474.74) rotate(-45)"/><path class="cls-13" d="M513.89,391a10.84,10.84,0,1,1,10.84-10.84A10.85,10.85,0,0,1,513.89,391Zm0-20a9.2,9.2,0,1,0,9.21,9.2A9.21,9.21,0,0,0,513.89,371Z"/><rect class="cls-7" x="468.93" y="217.98" width="89.93" height="24.47" rx="2.33"/><rect class="cls-7" x="468.93" y="250.63" width="89.93" height="24.47" rx="2.33"/><rect class="cls-7" x="468.93" y="283.28" width="89.93" height="24.47" rx="2.33"/><rect class="cls-7" x="468.93" y="315.93" width="89.93" height="24.47" rx="2.33"/><polygon class="cls-5" points="503.31 182.42 524.51 182.42 522.17 164.23 505.67 164.23 503.31 182.42"/><polygon class="cls-14" points="482.26 182.42 503.31 182.42 505.67 164.23 489.29 164.23 482.26 182.42"/><polygon class="cls-5" points="461.14 182.42 482.26 182.42 489.29 164.23 472.85 164.23 461.14 182.42"/><polygon class="cls-14" points="472.85 164.23 461.14 182.42 440.02 182.42 456.68 164.23 472.85 164.23"/><polygon class="cls-14" points="545.57 182.42 524.52 182.42 522.16 164.23 538.54 164.23 545.57 182.42"/><polygon class="cls-5" points="566.69 182.42 545.57 182.42 538.54 164.23 554.98 164.23 566.69 182.42"/><polygon class="cls-14" points="554.98 164.23 566.69 182.42 587.81 182.42 571.15 164.23 554.98 164.23"/><path class="cls-15" d="M440,182.42v10.4a10.56,10.56,0,0,0,21.12,0v-10.4Z"/><path class="cls-15" d="M482.26,182.42v10.4a10.57,10.57,0,0,0,21.13,0v-10.4Z"/><path class="cls-15" d="M524.44,182.42v10.4a10.56,10.56,0,1,0,21.12,0v-10.4Z"/><path class="cls-15" d="M566.69,182.42v10.4a10.56,10.56,0,1,0,21.12,0v-10.4Z"/><path class="cls-16" d="M461.14,182.42v10.4a10.56,10.56,0,0,0,21.12,0v-10.4Z"/><path class="cls-16" d="M503.35,182.42v10.4a10.57,10.57,0,0,0,21.13,0v-10.4Z"/><path class="cls-16" d="M545.56,182.42v10.4a10.57,10.57,0,0,0,21.13,0v-10.4Z"/><path class="cls-17" d="M624.78,336.64a1,1,0,0,1-1-1c0-10.75-8.74-34.43-18.07-34.43s-18.06,23.68-18.06,34.43a1,1,0,1,1-2,0c0-5.7,2.34-14.79,5.68-22.1,2.46-5.37,7.6-14.37,14.43-14.37s12,9,14.43,14.37c3.35,7.31,5.68,16.4,5.68,22.1A1,1,0,0,1,624.78,336.64Z"/><path class="cls-14" d="M637.67,397.57H564.41a4.74,4.74,0,0,1-4.73-4.74V322.35h78Z"/><path class="cls-15" d="M582.15,334.8a2.57,2.57,0,1,1-2.57-2.57A2.57,2.57,0,0,1,582.15,334.8Z"/><path class="cls-15" d="M620.33,334.8a2.57,2.57,0,1,1-2.57-2.57A2.57,2.57,0,0,1,620.33,334.8Z"/><path class="cls-18" d="M617.76,335.82a1,1,0,0,1-1-1c0-10.76-8.74-34.44-18.07-34.44S580.61,324,580.61,334.8a1,1,0,0,1-2.05,0c0-5.71,2.34-14.8,5.68-22.11,2.46-5.37,7.6-14.37,14.43-14.37s12,9,14.43,14.37c3.35,7.31,5.68,16.4,5.68,22.11A1,1,0,0,1,617.76,335.82Z"/><polygon class="cls-15" points="641.38 393.04 637.67 397.57 637.67 322.36 641.23 325.86 641.38 393.04"/><path class="cls-17" d="M429.31,316.4a1,1,0,0,1-1-1c0-10.76-8.74-34.43-18.07-34.43s-18.07,23.67-18.07,34.43a1,1,0,0,1-2,0c0-5.71,2.34-14.8,5.68-22.11,2.46-5.36,7.6-14.37,14.43-14.37s12,9,14.43,14.37c3.35,7.31,5.68,16.4,5.68,22.11A1,1,0,0,1,429.31,316.4Z"/><path class="cls-2" d="M442.2,397.79H368.94a4.73,4.73,0,0,1-4.73-4.73V302.12h78Z"/><path class="cls-19" d="M386.68,314.56a2.57,2.57,0,1,1-2.57-2.57A2.57,2.57,0,0,1,386.68,314.56Z"/><path class="cls-19" d="M424.86,314.56a2.57,2.57,0,1,1-2.57-2.57A2.57,2.57,0,0,1,424.86,314.56Z"/><path class="cls-18" d="M422.29,315.59a1,1,0,0,1-1-1c0-10.75-8.74-34.43-18.07-34.43s-18.06,23.68-18.06,34.43a1,1,0,1,1-2.05,0c0-5.7,2.34-14.79,5.68-22.1,2.46-5.37,7.6-14.37,14.43-14.37s12,9,14.43,14.37c3.35,7.31,5.68,16.4,5.68,22.1A1,1,0,0,1,422.29,315.59Z"/><polygon class="cls-19" points="445.91 393.27 442.2 397.79 442.2 302.12 445.76 305.63 445.91 393.27"/><path class="cls-17" d="M450.52,362.79a1,1,0,0,1-1-1c0-7-5.57-22.3-11.53-22.3-2.59,0-5.49,3.09-8,8.46-2.11,4.61-3.58,10.3-3.58,13.84a1,1,0,0,1-2.05,0c0-7.26,5.74-24.34,13.58-24.34s13.58,17.08,13.58,24.34A1,1,0,0,1,450.52,362.79Z"/><path class="cls-8" d="M459,402.51H411.48a3.77,3.77,0,0,1-3.77-3.77V353.05H459Z"/><path class="cls-9" d="M422.49,361.23a1.69,1.69,0,1,1-1.69-1.69A1.69,1.69,0,0,1,422.49,361.23Z"/><path class="cls-9" d="M447.6,361.23a1.69,1.69,0,1,1-1.69-1.69A1.69,1.69,0,0,1,447.6,361.23Z"/><path class="cls-18" d="M445.91,362.25a1,1,0,0,1-1-1c0-7-5.57-22.3-11.53-22.3-2.59,0-5.48,3.09-7.94,8.47-2.11,4.6-3.59,10.29-3.59,13.83a1,1,0,1,1-2,0c0-7.26,5.73-24.34,13.57-24.34s13.58,17.08,13.58,24.34A1,1,0,0,1,445.91,362.25Z"/><polygon class="cls-9" points="461.44 399.54 459 402.51 459 353.05 461.34 355.35 461.44 399.54"/><path class="cls-10" d="M369.83,345.79c5.56,18.36,6.51,43.14,6.65,53.79a1.57,1.57,0,0,1-2.88.87c-5.79-8.93-18.76-30.07-24.33-48.43-3.77-12.45-1.11-20.25,4.56-22S366,333.3,369.83,345.79Z"/><path class="cls-11" d="M373.83,397a1,1,0,0,1-1-.72L358.72,349.7a1,1,0,0,1,2-.59l14.13,46.61a1,1,0,0,1-1,1.32Z"/><path class="cls-10" d="M383.68,362.27c-4.24,12.83-5.34,30.26-5.62,37.75a1.1,1.1,0,0,0,2,.66c4.23-6.18,13.73-20.83,18-33.66,2.88-8.7,1.14-14.24-2.82-15.55S386.57,353.55,383.68,362.27Z"/><path class="cls-11" d="M380,398.58a.93.93,0,0,1-.32-.05,1,1,0,0,1-.65-1.29l10.77-32.57a1,1,0,0,1,1.94.64L381,397.88A1,1,0,0,1,380,398.58Z"/><path class="cls-10" d="M550.87,345.79c5.56,18.36,6.51,43.14,6.65,53.79a1.57,1.57,0,0,1-2.88.87c-5.79-8.93-18.76-30.07-24.33-48.43-3.77-12.45-1.11-20.25,4.57-22S547.08,333.3,550.87,345.79Z"/><path class="cls-11" d="M554.87,397a1,1,0,0,1-1-.72L539.76,349.7a1,1,0,0,1,2-.59l14.13,46.61a1,1,0,0,1-1,1.32Z"/><path class="cls-10" d="M583.93,365.52c-8,10.89-14.44,27.12-17,34.16a1.1,1.1,0,0,0,1.71,1.25c5.94-4.57,19.5-15.56,27.5-26.45,5.43-7.39,5.49-13.19,2.13-15.66S589.37,358.12,583.93,365.52Z"/><path class="cls-11" d="M569.49,399a1,1,0,0,1-.6-.2,1,1,0,0,1-.22-1.43L589,369.69a1,1,0,0,1,1.43-.22,1,1,0,0,1,.22,1.43l-20.31,27.64A1,1,0,0,1,569.49,399Z"/><path class="cls-8" d="M587,332c-3.88,25.23-17.08,55.55-22.89,68.07a2,2,0,0,1-3.7-.57c-1.79-13.69-5.26-46.57-1.38-71.8,2.61-16.95,10.21-24.71,17.94-23.52S589.59,315,587,332Z"/><path class="cls-9" d="M562.81,397h-.16a1,1,0,0,1-.85-1.17l10.07-65.48a1,1,0,0,1,1.17-.86,1,1,0,0,1,.85,1.17l-10.07,65.49A1,1,0,0,1,562.81,397Z"/><ellipse class="cls-14" cx="372.03" cy="249.21" rx="14.65" ry="16.29"/><path class="cls-20" d="M374.28,247.76c-.72,0-.94.24-.94.54,0,1.27,3.91-.14,3.91,3,0,1.78-1.71,3.68-5.52,3.68-4.12,0-5.23-1.45-5.23-2.74a2.12,2.12,0,0,1,1.11-1.94,4.89,4.89,0,0,0,2.6.89c.58,0,.81-.21.81-.5,0-1.05-3.55,0-3.55-3.13,0-2.3,1.71-4.1,5.5-4.1,3.28,0,4.92.89,4.92,2.92a2.16,2.16,0,0,1-1.17,2A5.78,5.78,0,0,0,374.28,247.76Zm-4.64,8.14a4.19,4.19,0,0,1,2-.45c.79,0,1.47.21,1.47.84s-.32,1-.32,1.88a2.64,2.64,0,0,1-1.64.44c-1.32,0-1.62-.42-1.62-1.07C369.5,257.07,369.64,256.52,369.64,255.9Zm5.13-13.29a6.66,6.66,0,0,1-2.11.38c-.86,0-1.52-.24-1.52-.94,0-.33.09-.68.09-1.17a4.53,4.53,0,0,0-.07-.75,3.39,3.39,0,0,1,2.3-.66c1.2,0,1.88.47,1.88,1.08a2,2,0,0,1-.1.54Z"/><ellipse class="cls-2" cx="424.73" cy="151.82" rx="14.65" ry="16.29"/><path class="cls-20" d="M434,149.65a.81.81,0,0,1-.54-.2,13.46,13.46,0,0,0-17.41-.19.81.81,0,0,1-1.15-.11A.82.82,0,0,1,415,148a15.11,15.11,0,0,1,19.53.22.81.81,0,0,1-.53,1.43Z"/><path class="cls-20" d="M431.66,151.66a.78.78,0,0,1-.46-.14,11.81,11.81,0,0,0-13.18,0,.8.8,0,0,1-1.13-.22.81.81,0,0,1,.22-1.13,13.43,13.43,0,0,1,15,0,.8.8,0,0,1,.22,1.13A.78.78,0,0,1,431.66,151.66Z"/><path class="cls-20" d="M429.64,154a.85.85,0,0,1-.38-.09,10.1,10.1,0,0,0-4.65-1.12,10,10,0,0,0-4.37,1,.83.83,0,0,1-1.1-.39.82.82,0,0,1,.39-1.09,11.79,11.79,0,0,1,10.48.16.82.82,0,0,1,.36,1.1A.83.83,0,0,1,429.64,154Z"/><path class="cls-20" d="M424.76,159.48a2.26,2.26,0,1,1,2.26-2.26A2.26,2.26,0,0,1,424.76,159.48Zm0-2.89a.63.63,0,0,0-.63.63.63.63,0,1,0,1.26,0A.63.63,0,0,0,424.76,156.59Z"/><ellipse class="cls-14" cx="620.33" cy="181.51" rx="14.65" ry="16.29"/><path class="cls-20" d="M630.06,176v-.06a1099815648467.59,1099815648467.59,0,0,1,0-.12.14.14,0,0,0,0-.06.17.17,0,0,0,0-.05l0,0,0-.05,0-.05,0,0,0,0-.05,0-.06,0-.06,0H614.58l-.51-1.77s0,0,0,0l0-.06s0,0,0,0l0-.06s0,0,0,0a.08.08,0,0,0,0,0l0,0-.05,0,0,0-.06,0h-.05l-.06,0h-3.44a.61.61,0,0,0-.61.62.61.61,0,0,0,.61.61H613l2.68,9.4a1.81,1.81,0,0,0,.76,3.39h10.87a.62.62,0,0,0,0-1.23H616.59a.6.6,0,1,1,0-1.19H627l.17,0h0l.15-.08,0,0a.57.57,0,0,0,.11-.11v0a.48.48,0,0,0,.08-.16h0L630,176.1v0a.13.13,0,0,0,0-.06A.13.13,0,0,0,630.06,176Zm-4.88.59h3.45l-.45,1.51H625Zm-.31,2.74h2.94l-.45,1.51h-2.67Zm-9.51-1.23-.43-1.51h3.29l.18,1.51Zm.78,2.74-.43-1.51h2.83l.17,1.51Zm.77,2.69-.42-1.46h2.36l.17,1.46Zm6.24,0h-2.89l-.17-1.46h3.23Zm.31-2.69H620l-.18-1.51h3.86Zm.31-2.74h-4.14l-.17-1.51H624Zm.78,4H627l-.44,1.46h-2.17Z"/><path class="cls-20" d="M618.51,190.92a1.81,1.81,0,1,1,1.8-1.81A1.81,1.81,0,0,1,618.51,190.92Zm0-2.38a.57.57,0,0,0-.58.57.58.58,0,0,0,.58.58.57.57,0,0,0,.57-.58A.56.56,0,0,0,618.51,188.54Z"/><path class="cls-20" d="M624.52,190.92a1.81,1.81,0,1,1,1.8-1.81A1.81,1.81,0,0,1,624.52,190.92Zm0-2.38a.57.57,0,0,0-.58.57.58.58,0,1,0,1.15,0A.57.57,0,0,0,624.52,188.54Z"/><rect class="cls-21" x="544.47" y="207.89" width="113.31" height="72.13" rx="4.25"/><rect class="cls-22" x="544.47" y="215.6" width="113.31" height="17.03"/><rect class="cls-4" x="549.41" y="235.44" width="103.73" height="11.82"/><rect class="cls-4" x="553.65" y="252.04" width="95.25" height="1.82"/><rect class="cls-4" x="553.65" y="255.15" width="95.25" height="1.82"/><rect class="cls-4" x="553.65" y="258.26" width="62.07" height="1.82"/><rect class="cls-4" x="553.65" y="264.49" width="95.25" height="1.82"/><rect class="cls-4" x="553.65" y="267.6" width="95.25" height="1.82"/><rect class="cls-4" x="553.65" y="270.71" width="28.52" height="1.82"/><rect class="cls-12" x="544.47" y="215.6" width="113.31" height="17.03"/><g class="cls-23"><polygon class="cls-24" points="641.76 207.89 544.48 273 544.48 269.42 636.4 207.89 641.76 207.89"/></g><g class="cls-23"><polygon class="cls-24" points="657.75 228.66 581 280.03 575.64 280.03 657.78 225.05 657.75 228.66"/></g><g class="cls-23"><polygon class="cls-24" points="625.08 207.89 544.48 261.84 544.48 254.59 614.25 207.89 625.08 207.89"/></g><path class="cls-2" d="M115.63,227.69v7.75h-2.48V215.65h6.3a5.72,5.72,0,0,1,4.34,1.65,7.06,7.06,0,0,1,.08,8.8,5.85,5.85,0,0,1-4.24,1.59Zm0-2.13h3.82a3.21,3.21,0,0,0,2.55-1,4.13,4.13,0,0,0,.88-2.84,4.25,4.25,0,0,0-.91-2.86,3.1,3.1,0,0,0-2.5-1.08h-3.84Z"/><path class="cls-2" d="M134.56,227.43h-3.48v8h-2.5V215.65h5.55a5.92,5.92,0,0,1,4.4,1.51,6.05,6.05,0,0,1,1.5,4.44,6.16,6.16,0,0,1-.81,3.2,5.15,5.15,0,0,1-2.29,2.06l3.83,8.42v.16h-2.68Zm-3.48-2.13h3a3.23,3.23,0,0,0,2.49-1,3.82,3.82,0,0,0,.93-2.7q0-3.81-3.45-3.81h-3Z"/><path class="cls-2" d="M156.23,227.28a9.89,9.89,0,0,1-1.72,6.25,6.59,6.59,0,0,1-9.74.06,9.42,9.42,0,0,1-1.85-6v-3.73a9.89,9.89,0,0,1,1.76-6.22,5.85,5.85,0,0,1,4.89-2.25,5.93,5.93,0,0,1,4.88,2.16,9.71,9.71,0,0,1,1.78,6.15Zm-2.48-3.46a8.5,8.5,0,0,0-1-4.67,4,4,0,0,0-6.26,0,8.23,8.23,0,0,0-1.06,4.57v3.54a8.42,8.42,0,0,0,1,4.63,4,4,0,0,0,6.25.12,8.28,8.28,0,0,0,1.05-4.5Z"/><path class="cls-2" d="M171.88,215.65v14.07a6,6,0,0,1-1.63,4.4,7.18,7.18,0,0,1-9,0,6.14,6.14,0,0,1-1.58-4.44V215.65h2.48v14a4.48,4.48,0,0,0,.85,3,4.33,4.33,0,0,0,5.49,0,4.48,4.48,0,0,0,.85-3v-14Z"/><path class="cls-2" d="M175.72,235.44V215.65h4.72a6.82,6.82,0,0,1,5.38,2.16,8.91,8.91,0,0,1,1.92,6.1v3.32a8.7,8.7,0,0,1-2,6.07,7.2,7.2,0,0,1-5.64,2.14Zm2.49-17.66v15.53h2A4.62,4.62,0,0,0,184,231.8a7.07,7.07,0,0,0,1.24-4.45v-3.51a7.15,7.15,0,0,0-1.21-4.6,4.44,4.44,0,0,0-3.63-1.46Z"/><path class="cls-2" d="M194.12,233.31h7.76v2.13H191.61V215.65h2.51Z"/><path class="cls-2" d="M206.75,225.58l4.05-9.93h2.81L208,228.06v7.38H205.5v-7.38l-5.63-12.41h2.82Z"/><path class="cls-2" d="M123.79,256.55H117.1l-1.54,5.18H113l6.38-19.79h2.13l6.39,19.79h-2.55Zm-6-2.13h5.4l-2.71-9Z"/><path class="cls-2" d="M139.77,253h-6.68v8.74H130.6V241.94h10.3v2.13h-7.81v6.79h6.68Z"/><path class="cls-2" d="M150,253.73h-3.48v8H144V241.94h5.54a5.94,5.94,0,0,1,4.41,1.51,6.05,6.05,0,0,1,1.5,4.44,6.14,6.14,0,0,1-.81,3.2,5.09,5.09,0,0,1-2.29,2.06l3.83,8.42v.16h-2.68Zm-3.48-2.14h3a3.23,3.23,0,0,0,2.49-1,3.81,3.81,0,0,0,.93-2.69q0-3.82-3.45-3.82h-3Z"/><path class="cls-2" d="M161.35,261.73h-2.48V241.94h2.48Z"/><path class="cls-2" d="M178.13,255.44a7.3,7.3,0,0,1-1.79,4.87,6.05,6.05,0,0,1-4.59,1.7,5.68,5.68,0,0,1-4.73-2.27,9.76,9.76,0,0,1-1.75-6.14V250a9.47,9.47,0,0,1,1.8-6.1,6,6,0,0,1,4.92-2.24,5.73,5.73,0,0,1,4.44,1.71,7.54,7.54,0,0,1,1.7,4.91h-2.51a6.14,6.14,0,0,0-1-3.46,3.19,3.19,0,0,0-2.61-1,3.58,3.58,0,0,0-3.12,1.58,8.28,8.28,0,0,0-1.09,4.65v3.63a8.63,8.63,0,0,0,1,4.61,3.27,3.27,0,0,0,2.95,1.6,3.62,3.62,0,0,0,2.81-1,6.14,6.14,0,0,0,1.06-3.47Z"/><path class="cls-2" d="M190.74,256.55h-6.69l-1.54,5.18H180l6.38-19.79h2.14l6.39,19.79H192.3Zm-6-2.13h5.4l-2.71-9Z"/><path class="cls-2" d="M210.48,261.73H208l-7.93-15.25v15.25h-2.5V241.94h2.5L208,257.26V241.94h2.48Z"/><path class="cls-14" d="M84.37,140.17H82.72l1.29,5a6.72,6.72,0,0,1,.27,1.42c0,.75-.46,1.12-1.39,1.12H71.25a2,2,0,0,1-1.36-.42,1.51,1.51,0,0,1-.47-1.19q0-1,2-6.24t7-16.65a2.88,2.88,0,0,0,.27-1.11,2.22,2.22,0,0,0-.38-1.3,5,5,0,0,0-1.41-1.2c-.29-.18-.44-.38-.44-.58v-.54c0-.3.18-.45.53-.45H87.36a4.44,4.44,0,0,1,2.38.58,3.72,3.72,0,0,1,1.41,1.88l8.61,22.67a10.13,10.13,0,0,1,.85,3.12,1.28,1.28,0,0,1-1.47,1.43H87.94a1.91,1.91,0,0,1-1.36-.4,3.44,3.44,0,0,1-.74-1.61Zm-2.19-2.1h1.65l-3.12-12a.78.78,0,0,0-.58-.23.85.85,0,0,0-.58.2.68.68,0,0,0-.23.52,2.08,2.08,0,0,0,.05.4c0,.15.07.33.13.53Z"/><path class="cls-14" d="M102.26,125v-2.19a7.82,7.82,0,0,1,2.72-6.22,10.73,10.73,0,0,1,7.23-2.34,10.41,10.41,0,0,1,5.81,1.47,4.45,4.45,0,0,1,2.23,3.84,3.69,3.69,0,0,1-1.63,3.16,7.4,7.4,0,0,1-4.4,1.16,7.12,7.12,0,0,1-4.1-1,3.24,3.24,0,0,1-1.48-2.81,2.68,2.68,0,0,1,1-2.17,4,4,0,0,1,2.67-.82.46.46,0,0,0,.12-.23c0-.09,0-.16,0-.22,0-.42-.32-.62-.94-.62a4.17,4.17,0,0,0-4.19,4.19c0,2.17,1.33,3.78,4,4.82h6.07q.54,0,.54.45v.8q0,.45-.54.45h-4.46a2.25,2.25,0,0,1,.67.82,3.42,3.42,0,0,1,.18,1.27v17.45a1.54,1.54,0,0,1-.34,1.1,1.66,1.66,0,0,1-1.18.33h-8.48a1.65,1.65,0,0,1-1.18-.33,1.49,1.49,0,0,1-.34-1.1V126.74h-3c-.35,0-.53-.15-.53-.45v-.8c0-.3.18-.45.53-.45Z"/><path class="cls-14" d="M119,125q3.84,0,5.22,2.28a8.25,8.25,0,0,1,2.9-2.12,9.33,9.33,0,0,1,3.71-.7,8,8,0,0,1,5.35,1.79,5.71,5.71,0,0,1,2.1,4.55,4.72,4.72,0,0,1-1.7,3.77,6.46,6.46,0,0,1-4.37,1.45,6.65,6.65,0,0,1-4.31-1.34,4.17,4.17,0,0,1-1.67-3.39,3.68,3.68,0,0,1,1.21-2.85,4.32,4.32,0,0,1,3.07-1.12.88.88,0,0,0,.14-.45c0-.41-.31-.62-.94-.62a4.54,4.54,0,0,0-3.39,1.49,5,5,0,0,0-1.43,3.6,5.13,5.13,0,0,0,1,3.14,6.8,6.8,0,0,0,2.87,2.17,1.73,1.73,0,0,1,.83.6,2.38,2.38,0,0,1,.2,1.14v7.85c0,.95-.51,1.43-1.52,1.43h-9.06a1.24,1.24,0,0,1-1.38-1.43V130.53a5.1,5.1,0,0,0-.45-2.39,4.21,4.21,0,0,0-1.65-1.54,1.23,1.23,0,0,1-.38-.29.6.6,0,0,1-.06-.29v-.53c0-.3.18-.45.53-.45Z"/><path class="cls-14" d="M150.06,125a1.62,1.62,0,0,1,1.18.34,1.5,1.5,0,0,1,.33,1.09V141a2.58,2.58,0,0,0,.14,1,.45.45,0,0,0,.44.27.57.57,0,0,0,.56-.32,6.21,6.21,0,0,0,.34-1.42,3.63,3.63,0,0,1,.17-.92.39.39,0,0,1,.36-.16h.76a.4.4,0,0,1,.38.32,3.71,3.71,0,0,1,.11,1.07,6.7,6.7,0,0,1-7.41,7.41,7,7,0,0,1-5.29-1.95,7.73,7.73,0,0,1-1.85-5.55V130.53a5.24,5.24,0,0,0-.44-2.39,4.35,4.35,0,0,0-1.65-1.54,1,1,0,0,1-.38-.29.5.5,0,0,1-.07-.29v-.53c0-.3.18-.45.53-.45Zm-10.27-6.25a3.84,3.84,0,0,1,1.56-3.21,6.74,6.74,0,0,1,4.2-1.21,6.84,6.84,0,0,1,4.22,1.21,4,4,0,0,1,0,6.38,8,8,0,0,1-8.42,0A3.78,3.78,0,0,1,139.79,118.79Z"/><path class="cls-14" d="M164.78,118a4.7,4.7,0,0,1,4.69,3.17l3.84,9.69a1.11,1.11,0,0,0,.71.17.6.6,0,0,0,.49-.2.67.67,0,0,0,.18-.46,5.47,5.47,0,0,0-.49-1.66l-3.53-8.92a2.67,2.67,0,0,1-.22-.89v-.32a.59.59,0,0,1,.13-.46A.67.67,0,0,1,171,118h12.58c1.16,0,1.74.49,1.74,1.48a3,3,0,0,1-.51,1.36c-.34.58-1.27,1.89-2.79,3.95l-5.13,7a8.32,8.32,0,0,1,5.62,2.1,7,7,0,0,1,2,5.27v3.48a4.21,4.21,0,0,0,.4,2.1,4.58,4.58,0,0,0,1.69,1.38,1,1,0,0,1,.38.29.5.5,0,0,1,.07.29v.53c0,.3-.18.45-.53.45H173a1.5,1.5,0,0,1-1.14-.36,1.74,1.74,0,0,1-.33-1.2V133a1.35,1.35,0,0,0-.23-.8.71.71,0,0,0-.62-.31,1,1,0,0,0-.85.36v13.92a1.74,1.74,0,0,1-.33,1.2,1.53,1.53,0,0,1-1.14.36h-9a1.53,1.53,0,0,1-1.14-.36,1.74,1.74,0,0,1-.33-1.2v-23a5.36,5.36,0,0,0-.18-1.63,2.41,2.41,0,0,0-.62-.93,11.47,11.47,0,0,0-1.52-1.14.44.44,0,0,1-.22-.4v-.54c0-.3.17-.45.53-.45Z"/><path class="cls-25" d="M193.38,121.27a5.27,5.27,0,0,0-.44-2.39,4.32,4.32,0,0,0-1.66-1.54.94.94,0,0,1-.37-.29.5.5,0,0,1-.07-.29v-.53c0-.3.18-.45.53-.45h11.56a1.6,1.6,0,0,1,1.18.34,1.47,1.47,0,0,1,.34,1.09v9.33a6.93,6.93,0,0,1,5.13-1.88,7.41,7.41,0,0,1,6.25,3c1.52,2,2.27,4.76,2.27,8.27q0,6-3.1,9.22c-2.06,2.16-5,3.23-8.85,3.23a13.85,13.85,0,0,1-5.25-.87,12.07,12.07,0,0,1-4.08-2.92c-.24,0-.43.17-.56.51s-.33,1.08-.6,2.21a.69.69,0,0,1-.18.43.74.74,0,0,1-.45.11h-1.11a.49.49,0,0,1-.43-.16,1,1,0,0,1-.11-.55Zm12.68,8.39c0-.71-.29-1.07-.85-1.07a.89.89,0,0,0-.76.36v17a.89.89,0,0,0,.76.36c.56,0,.85-.36.85-1.07Z"/><path class="cls-25" d="M239.17,148.4a6.67,6.67,0,0,1-6.43-3.7,6.9,6.9,0,0,1-2.52,2.81,7,7,0,0,1-3.68.89,7.64,7.64,0,0,1-4.95-1.51,4.91,4.91,0,0,1-1.88-4,4.24,4.24,0,0,1,1.54-3.46,9.52,9.52,0,0,1,4.75-1.72q8.22-1.06,8.21-6.2a5,5,0,0,0-1.42-3.55,4.58,4.58,0,0,0-3.39-1.49c-.63,0-.94.21-.94.62a.86.86,0,0,0,.13.45,4.33,4.33,0,0,1,3.08,1.12,3.72,3.72,0,0,1,1.21,2.85,4.13,4.13,0,0,1-1.72,3.39,6.91,6.91,0,0,1-4.4,1.34,6.47,6.47,0,0,1-4.33-1.36,4.47,4.47,0,0,1-1.6-3.59,5.46,5.46,0,0,1,2.9-4.8,14.39,14.39,0,0,1,7.67-1.81c3.81,0,6.7.93,8.68,2.77s3,4.55,3,8.12v5.58a2.58,2.58,0,0,0,.14,1,.43.43,0,0,0,.44.26.59.59,0,0,0,.58-.35,5.06,5.06,0,0,0,.31-1.39,3.34,3.34,0,0,1,.18-.91.39.39,0,0,1,.36-.16h.76c.18,0,.3.11.38.32a3.45,3.45,0,0,1,.11,1,7.68,7.68,0,0,1-1.85,5.51A7,7,0,0,1,239.17,148.4ZM232,138.77a.83.83,0,0,0-.71-.36c-.51,0-.76.3-.76.89v2.86c0,.59.25.89.76.89a.83.83,0,0,0,.71-.36Z"/><path class="cls-25" d="M245.42,129.08a3.58,3.58,0,0,0-.74-1.25,7.09,7.09,0,0,0-1.41-1.07c-.29-.18-.44-.37-.44-.58v-.53c0-.3.18-.45.53-.45h7a15.84,15.84,0,0,1,4.49.47,4.29,4.29,0,0,1,2.28,1.63,13.58,13.58,0,0,1,1.58,3.43L263,143.67a.74.74,0,0,0,.54.23c.45,0,.67-.25.67-.76a5.14,5.14,0,0,0-.36-1.47l-4-12.28a8,8,0,0,0-1-2.32c-.27-.32-.44-.54-.51-.64a.62.62,0,0,1-.12-.38v-.4q0-.45.54-.45H271.3c1.07,0,1.61.39,1.61,1.16s-.76,3.15-2.28,7.32-3.59,9.46-6.2,15.88a27.79,27.79,0,0,1-2.81,5.47,8.48,8.48,0,0,1-3.06,2.77,10.19,10.19,0,0,1-9.28-.65,4.55,4.55,0,0,1-2-3.88,4.1,4.1,0,0,1,1.65-3.39,6.7,6.7,0,0,1,4.28-1.3,6.47,6.47,0,0,1,4,1.19,3.65,3.65,0,0,1,1.56,3,2.69,2.69,0,0,1-1,2.21,4.17,4.17,0,0,1-2.7.78.87.87,0,0,0-.09.4c0,.42.34.63,1,.63a3.94,3.94,0,0,0,2.9-1.18,4.09,4.09,0,0,0,1.16-3,4.51,4.51,0,0,0-1.47-3.46,8.32,8.32,0,0,0-4.29-1.85,4.49,4.49,0,0,1-2.1-.72,5.12,5.12,0,0,1-1-2Z"/><path class="cls-26" d="M110.37,369.73h2.38v.65H109.6V364.3h.77Z"/><path class="cls-26" d="M113.4,367.92a2.35,2.35,0,0,1,.48-1.56,1.55,1.55,0,0,1,1.26-.58,1.6,1.6,0,0,1,1.27.56,2.32,2.32,0,0,1,.49,1.53v.47a2.32,2.32,0,0,1-.48,1.55,1.55,1.55,0,0,1-1.27.58,1.59,1.59,0,0,1-1.26-.56,2.38,2.38,0,0,1-.49-1.5Zm.74.42a1.87,1.87,0,0,0,.28,1.1.85.85,0,0,0,.73.4c.65,0,1-.47,1-1.42v-.5a1.87,1.87,0,0,0-.28-1.1.84.84,0,0,0-.74-.4.82.82,0,0,0-.72.4,1.85,1.85,0,0,0-.28,1.09Z"/><path class="cls-26" d="M119.72,366.56a1.87,1.87,0,0,0-.34,0,.81.81,0,0,0-.79.62v3.23h-.74v-4.51h.72v.46a.92.92,0,0,1,.84-.55.62.62,0,0,1,.29.06Z"/><path class="cls-26" d="M122.07,370.47a1.64,1.64,0,0,1-1.3-.51,2.17,2.17,0,0,1-.46-1.47v-.55a2.56,2.56,0,0,1,.44-1.58,1.46,1.46,0,0,1,1.23-.58,1.41,1.41,0,0,1,1.19.51,2.62,2.62,0,0,1,.4,1.57v.49h-2.52v.1a1.68,1.68,0,0,0,.27,1.06,1,1,0,0,0,.79.33,1.29,1.29,0,0,0,.57-.13,1.4,1.4,0,0,0,.47-.39l.38.47A1.68,1.68,0,0,1,122.07,370.47Zm-.09-4.05a.78.78,0,0,0-.68.31,1.86,1.86,0,0,0-.25,1h1.78v-.1a1.8,1.8,0,0,0-.23-.92A.73.73,0,0,0,122,366.42Z"/><path class="cls-26" d="M125.15,365.87l0,.41a1.35,1.35,0,0,1,1.09-.5,1.06,1.06,0,0,1,1,.66,1.35,1.35,0,0,1,1.19-.66c.83,0,1.26.52,1.28,1.56v3H129v-3a1.29,1.29,0,0,0-.17-.73.7.7,0,0,0-.6-.24.65.65,0,0,0-.54.26,1.14,1.14,0,0,0-.24.66v3h-.74v-3c0-.63-.27-.94-.77-.94a.8.8,0,0,0-.79.56v3.38h-.73v-4.51Z"/><path class="cls-26" d="M133.7,364.67a.46.46,0,0,1-.1.31.41.41,0,0,1-.32.13A.39.39,0,0,1,133,365a.47.47,0,0,1-.11-.31.5.5,0,0,1,.11-.32.36.36,0,0,1,.31-.13.39.39,0,0,1,.31.13A.52.52,0,0,1,133.7,364.67Zm-.06,5.71h-.74v-4.51h.74Z"/><path class="cls-26" d="M138.07,368.34a2.67,2.67,0,0,1-.39,1.6,1.28,1.28,0,0,1-1.09.53,1.24,1.24,0,0,1-1.05-.52v2.17h-.73v-6.25h.66l0,.5a1.2,1.2,0,0,1,1.07-.59,1.3,1.3,0,0,1,1.11.52,2.8,2.8,0,0,1,.38,1.55Zm-.74-.42a2.15,2.15,0,0,0-.23-1.12.84.84,0,0,0-.75-.36.88.88,0,0,0-.81.53v2.35a.88.88,0,0,0,.82.52.79.79,0,0,0,.73-.37,2,2,0,0,0,.24-1.1Z"/><path class="cls-26" d="M141.21,369.23a.57.57,0,0,0-.17-.41,2.53,2.53,0,0,0-.7-.4,5.29,5.29,0,0,1-.84-.42,1.23,1.23,0,0,1-.36-.4,1,1,0,0,1-.13-.54,1.18,1.18,0,0,1,.41-.91,1.63,1.63,0,0,1,2.09,0,1.31,1.31,0,0,1,.4,1h-.74a.77.77,0,0,0-.2-.52.7.7,0,0,0-.52-.21.69.69,0,0,0-.51.17.55.55,0,0,0-.19.45.48.48,0,0,0,.13.36,2.65,2.65,0,0,0,.66.36,3.48,3.48,0,0,1,1.12.63,1.12,1.12,0,0,1,.29.78,1.18,1.18,0,0,1-.4.94,1.58,1.58,0,0,1-1.09.36,1.61,1.61,0,0,1-1.14-.41,1.34,1.34,0,0,1-.44-1h.74a.84.84,0,0,0,.23.59.86.86,0,0,0,.61.22.83.83,0,0,0,.56-.17A.55.55,0,0,0,141.21,369.23Z"/><path class="cls-26" d="M145.22,370a1.28,1.28,0,0,1-1.08.48,1.06,1.06,0,0,1-.92-.43,2,2,0,0,1-.32-1.23v-2.94h.74v2.88c0,.71.21,1.06.63,1.06a.93.93,0,0,0,.93-.6v-3.34h.74v4.51h-.71Z"/><path class="cls-26" d="M147.74,365.87l0,.41a1.36,1.36,0,0,1,1.09-.5,1.08,1.08,0,0,1,1.06.66,1.32,1.32,0,0,1,1.18-.66c.83,0,1.26.52,1.28,1.56v3h-.74v-3a1.21,1.21,0,0,0-.17-.73.69.69,0,0,0-.59-.24.65.65,0,0,0-.55.26,1.14,1.14,0,0,0-.24.66v3h-.74v-3c0-.63-.27-.94-.77-.94a.78.78,0,0,0-.78.56v3.38h-.74v-4.51Z"/><path class="cls-26" d="M155.28,367.92a2.7,2.7,0,0,1,.39-1.59,1.29,1.29,0,0,1,1.12-.55,1.16,1.16,0,0,1,1,.53V364h.74v6.41h-.67l0-.48a1.16,1.16,0,0,1-1,.57,1.28,1.28,0,0,1-1.1-.55,2.59,2.59,0,0,1-.41-1.54Zm.74.42a2.11,2.11,0,0,0,.23,1.11.79.79,0,0,0,.73.36.86.86,0,0,0,.82-.55V367a.88.88,0,0,0-.81-.54.82.82,0,0,0-.74.35,2.12,2.12,0,0,0-.23,1.1Z"/><path class="cls-26" d="M159.52,367.92a2.35,2.35,0,0,1,.48-1.56,1.55,1.55,0,0,1,1.26-.58,1.6,1.6,0,0,1,1.27.56,2.32,2.32,0,0,1,.49,1.53v.47a2.32,2.32,0,0,1-.48,1.55,1.55,1.55,0,0,1-1.27.58,1.59,1.59,0,0,1-1.26-.56,2.33,2.33,0,0,1-.49-1.5Zm.74.42a1.87,1.87,0,0,0,.28,1.1.85.85,0,0,0,.73.4c.65,0,1-.47,1-1.42v-.5a1.87,1.87,0,0,0-.28-1.1.84.84,0,0,0-.74-.4.82.82,0,0,0-.72.4,1.85,1.85,0,0,0-.28,1.09Z"/><path class="cls-26" d="M164.77,370.38H164V364h.74Z"/><path class="cls-26" d="M165.77,367.92a2.35,2.35,0,0,1,.48-1.56,1.55,1.55,0,0,1,1.26-.58,1.6,1.6,0,0,1,1.27.56,2.32,2.32,0,0,1,.49,1.53v.47a2.32,2.32,0,0,1-.48,1.55,1.55,1.55,0,0,1-1.27.58,1.59,1.59,0,0,1-1.26-.56,2.33,2.33,0,0,1-.49-1.5Zm.74.42a1.87,1.87,0,0,0,.28,1.1.85.85,0,0,0,.73.4c.65,0,1-.47,1-1.42v-.5a1.87,1.87,0,0,0-.28-1.1.84.84,0,0,0-.74-.4.82.82,0,0,0-.72.4,1.85,1.85,0,0,0-.28,1.09Z"/><path class="cls-26" d="M172.08,366.56a1.69,1.69,0,0,0-.33,0,.81.81,0,0,0-.79.62v3.23h-.74v-4.51h.72v.46a.92.92,0,0,1,.84-.55.62.62,0,0,1,.29.06Z"/><path class="cls-26" d="M177,369.23a.54.54,0,0,0-.18-.41,2.44,2.44,0,0,0-.69-.4,5.29,5.29,0,0,1-.84-.42,1.39,1.39,0,0,1-.37-.4,1.13,1.13,0,0,1-.12-.54,1.18,1.18,0,0,1,.41-.91,1.43,1.43,0,0,1,1-.37,1.46,1.46,0,0,1,1.06.39,1.31,1.31,0,0,1,.4,1h-.74a.77.77,0,0,0-.2-.52.7.7,0,0,0-.52-.21.73.73,0,0,0-.52.17.58.58,0,0,0-.18.45.48.48,0,0,0,.13.36,2.47,2.47,0,0,0,.66.36,3.48,3.48,0,0,1,1.12.63,1.12,1.12,0,0,1,.29.78,1.18,1.18,0,0,1-.4.94,1.58,1.58,0,0,1-1.09.36,1.61,1.61,0,0,1-1.14-.41,1.34,1.34,0,0,1-.44-1h.74a.84.84,0,0,0,.23.59.86.86,0,0,0,.61.22.83.83,0,0,0,.56-.17A.55.55,0,0,0,177,369.23Z"/><path class="cls-26" d="M179.53,364.67a.47.47,0,0,1-.11.31.39.39,0,0,1-.31.13.41.41,0,0,1-.32-.13.46.46,0,0,1-.1-.31.49.49,0,0,1,.1-.32.38.38,0,0,1,.32-.13.39.39,0,0,1,.31.13A.52.52,0,0,1,179.53,364.67Zm-.06,5.71h-.74v-4.51h.74Z"/><path class="cls-26" d="M181.6,364.77v1.1h.68v.59h-.68v2.81a.72.72,0,0,0,.09.4.31.31,0,0,0,.3.14,1,1,0,0,0,.29-.05v.62a1.44,1.44,0,0,1-.51.09.79.79,0,0,1-.67-.32,1.49,1.49,0,0,1-.23-.88v-2.81h-.68v-.59h.68v-1.1Z"/><path class="cls-26" d="M187.44,370.38a1.41,1.41,0,0,1-.1-.49,1.18,1.18,0,0,1-1,.58,1.2,1.2,0,0,1-1.3-1.32,1.34,1.34,0,0,1,.47-1.09,1.93,1.93,0,0,1,1.28-.42h.54v-.48a.63.63,0,0,0-.73-.74.72.72,0,0,0-.54.2.66.66,0,0,0-.21.5h-.74a1.17,1.17,0,0,1,.21-.66,1.4,1.4,0,0,1,.55-.5,1.65,1.65,0,0,1,.77-.18,1.5,1.5,0,0,1,1.06.35,1.32,1.32,0,0,1,.36,1v2.28a2.75,2.75,0,0,0,.15.91v.06Zm-1-.59a1,1,0,0,0,.52-.15.91.91,0,0,0,.36-.37v-1.08h-.42a1.46,1.46,0,0,0-.83.24.74.74,0,0,0-.3.63.83.83,0,0,0,.15.56A.65.65,0,0,0,186.45,369.79Z"/><path class="cls-26" d="M189.91,365.87v.41a1.36,1.36,0,0,1,1.09-.5,1.07,1.07,0,0,1,1.06.66,1.33,1.33,0,0,1,1.18-.66c.84,0,1.26.52,1.28,1.56v3h-.73v-3a1.21,1.21,0,0,0-.18-.73.68.68,0,0,0-.59-.24.63.63,0,0,0-.54.26,1.22,1.22,0,0,0-.25.66v3h-.74v-3c0-.63-.26-.94-.76-.94a.79.79,0,0,0-.79.56v3.38h-.74v-4.51Z"/><path class="cls-26" d="M197.26,370.47A1.64,1.64,0,0,1,196,370a2.17,2.17,0,0,1-.46-1.47v-.55a2.56,2.56,0,0,1,.44-1.58,1.46,1.46,0,0,1,1.23-.58,1.41,1.41,0,0,1,1.19.51,2.62,2.62,0,0,1,.4,1.57v.49h-2.52v.1a1.68,1.68,0,0,0,.27,1.06,1,1,0,0,0,.79.33,1.26,1.26,0,0,0,.57-.13,1.4,1.4,0,0,0,.47-.39l.38.47A1.68,1.68,0,0,1,197.26,370.47Zm-.09-4.05a.78.78,0,0,0-.68.31,2,2,0,0,0-.25,1H198v-.1a1.8,1.8,0,0,0-.23-.92A.73.73,0,0,0,197.17,366.42Z"/><path class="cls-26" d="M200.61,364.77v1.1h.68v.59h-.68v2.81a.72.72,0,0,0,.09.4.34.34,0,0,0,.3.14,1,1,0,0,0,.3-.05v.62a1.52,1.52,0,0,1-.51.09.77.77,0,0,1-.67-.32,1.49,1.49,0,0,1-.23-.88v-2.81h-.69v-.59h.69v-1.1Z"/><path class="cls-26" d="M202.18,371.59l-.44-.3a2,2,0,0,0,.41-1.12v-.7h.75v.6a1.86,1.86,0,0,1-.2.85A2,2,0,0,1,202.18,371.59Z"/><path class="cls-26" d="M207.38,369.84a.77.77,0,0,0,.58-.23,1,1,0,0,0,.25-.65h.69a1.53,1.53,0,0,1-.46,1.08,1.47,1.47,0,0,1-1.06.43,1.57,1.57,0,0,1-1.28-.53,2.37,2.37,0,0,1-.44-1.57v-.5a2.44,2.44,0,0,1,.43-1.56,1.59,1.59,0,0,1,1.28-.53,1.44,1.44,0,0,1,1.1.44,1.75,1.75,0,0,1,.43,1.2h-.69a1.23,1.23,0,0,0-.24-.75.76.76,0,0,0-.6-.25.86.86,0,0,0-.73.32,1.82,1.82,0,0,0-.24,1.06v.58a2,2,0,0,0,.23,1.13A.87.87,0,0,0,207.38,369.84Z"/><path class="cls-26" d="M209.6,367.92a2.35,2.35,0,0,1,.48-1.56,1.55,1.55,0,0,1,1.26-.58,1.58,1.58,0,0,1,1.26.56,2.27,2.27,0,0,1,.49,1.53v.47a2.32,2.32,0,0,1-.47,1.55,1.55,1.55,0,0,1-1.27.58,1.59,1.59,0,0,1-1.26-.56,2.33,2.33,0,0,1-.49-1.5Zm.74.42a2,2,0,0,0,.27,1.1.88.88,0,0,0,.74.4c.65,0,1-.47,1-1.42v-.5a1.94,1.94,0,0,0-.28-1.1.88.88,0,0,0-1.47,0,1.93,1.93,0,0,0-.27,1.09Z"/><path class="cls-26" d="M214.74,365.87l0,.48a1.33,1.33,0,0,1,1.1-.57c.8,0,1.21.54,1.22,1.6v3h-.74v-3a1.31,1.31,0,0,0-.17-.76.65.65,0,0,0-.54-.22.74.74,0,0,0-.49.18,1.15,1.15,0,0,0-.35.48v3.28h-.74v-4.51Z"/><path class="cls-26" d="M220.38,369.23a.54.54,0,0,0-.18-.41,2.44,2.44,0,0,0-.69-.4,5.29,5.29,0,0,1-.84-.42,1.16,1.16,0,0,1-.37-.4,1.13,1.13,0,0,1-.12-.54,1.17,1.17,0,0,1,.4-.91,1.63,1.63,0,0,1,2.09,0,1.27,1.27,0,0,1,.4,1h-.73a.73.73,0,0,0-.21-.52.79.79,0,0,0-1,0,.59.59,0,0,0-.19.45.49.49,0,0,0,.14.36,2.53,2.53,0,0,0,.65.36,3.48,3.48,0,0,1,1.12.63,1.09,1.09,0,0,1,.3.78,1.18,1.18,0,0,1-.41.94,1.57,1.57,0,0,1-1.08.36,1.65,1.65,0,0,1-1.15-.41,1.34,1.34,0,0,1-.43-1h.74a.8.8,0,0,0,.23.59.84.84,0,0,0,.61.22.85.85,0,0,0,.56-.17A.58.58,0,0,0,220.38,369.23Z"/><path class="cls-26" d="M223.69,370.47a1.63,1.63,0,0,1-1.29-.51,2.17,2.17,0,0,1-.46-1.47v-.55a2.56,2.56,0,0,1,.44-1.58,1.44,1.44,0,0,1,1.23-.58,1.42,1.42,0,0,1,1.19.51,2.62,2.62,0,0,1,.4,1.57v.49h-2.53v.1a1.68,1.68,0,0,0,.28,1.06,1,1,0,0,0,.79.33,1.33,1.33,0,0,0,.57-.13,1.37,1.37,0,0,0,.46-.39l.39.47A1.69,1.69,0,0,1,223.69,370.47Zm-.08-4.05a.77.77,0,0,0-.68.31,1.86,1.86,0,0,0-.25,1h1.78v-.1a1.8,1.8,0,0,0-.23-.92A.73.73,0,0,0,223.61,366.42Z"/><path class="cls-26" d="M227.65,369.84a.79.79,0,0,0,.59-.23.94.94,0,0,0,.24-.65h.7a1.57,1.57,0,0,1-.46,1.08,1.5,1.5,0,0,1-1.07.43,1.59,1.59,0,0,1-1.28-.53,2.43,2.43,0,0,1-.44-1.57v-.5a2.44,2.44,0,0,1,.44-1.56,1.57,1.57,0,0,1,1.28-.53,1.44,1.44,0,0,1,1.1.44,1.8,1.8,0,0,1,.43,1.2h-.7a1.23,1.23,0,0,0-.24-.75.72.72,0,0,0-.59-.25.85.85,0,0,0-.73.32,1.89,1.89,0,0,0-.25,1.06v.58a2,2,0,0,0,.24,1.13A.83.83,0,0,0,227.65,369.84Z"/><path class="cls-26" d="M231,364.77v1.1h.68v.59H231v2.81a.72.72,0,0,0,.09.4.34.34,0,0,0,.3.14,1,1,0,0,0,.29-.05v.62a1.54,1.54,0,0,1-.52.09.79.79,0,0,1-.67-.32,1.49,1.49,0,0,1-.23-.88v-2.81h-.68v-.59h.68v-1.1Z"/><path class="cls-26" d="M234.17,370.47a1.63,1.63,0,0,1-1.29-.51,2.12,2.12,0,0,1-.46-1.47v-.55a2.49,2.49,0,0,1,.44-1.58,1.44,1.44,0,0,1,1.23-.58,1.39,1.39,0,0,1,1.18.51,2.48,2.48,0,0,1,.4,1.57v.49h-2.52v.1a1.62,1.62,0,0,0,.28,1.06,1,1,0,0,0,.78.33,1.34,1.34,0,0,0,.58-.13,1.37,1.37,0,0,0,.46-.39l.39.47A1.69,1.69,0,0,1,234.17,370.47Zm-.08-4.05a.77.77,0,0,0-.68.31,1.86,1.86,0,0,0-.25,1h1.78v-.1a1.7,1.7,0,0,0-.24-.92A.71.71,0,0,0,234.09,366.42Z"/><path class="cls-26" d="M237.93,368.12H236.2v-.63h1.73Z"/><path class="cls-26" d="M109.17,375v1.09h.68v.6h-.68v2.81a.73.73,0,0,0,.08.4.34.34,0,0,0,.3.14,1,1,0,0,0,.3-.05v.62a1.51,1.51,0,0,1-.51.08.77.77,0,0,1-.67-.31,1.49,1.49,0,0,1-.23-.88v-2.81h-.69v-.6h.69V375Z"/><path class="cls-26" d="M113,380.25a1.28,1.28,0,0,1-1.08.47,1.07,1.07,0,0,1-.92-.42,2,2,0,0,1-.32-1.23v-2.95h.73V379c0,.71.22,1.06.64,1.06a.93.93,0,0,0,.93-.6v-3.35h.73v4.52H113Z"/><path class="cls-26" d="M116.47,380.72a1.62,1.62,0,0,1-1.29-.5,2.14,2.14,0,0,1-.46-1.47v-.55a2.49,2.49,0,0,1,.44-1.58,1.44,1.44,0,0,1,1.23-.58,1.39,1.39,0,0,1,1.18.51,2.55,2.55,0,0,1,.4,1.57v.48h-2.52v.11a1.59,1.59,0,0,0,.28,1.05,1,1,0,0,0,.78.33,1.34,1.34,0,0,0,.58-.12,1.37,1.37,0,0,0,.46-.39l.39.47A1.68,1.68,0,0,1,116.47,380.72Zm-.08-4a.76.76,0,0,0-.68.31,1.86,1.86,0,0,0-.25,1h1.77v-.1A1.68,1.68,0,0,0,117,377,.71.71,0,0,0,116.39,376.68Z"/><path class="cls-26" d="M120.72,376.82a1.69,1.69,0,0,0-.33,0,.81.81,0,0,0-.79.62v3.23h-.74v-4.52h.72v.46a.93.93,0,0,1,.84-.54.65.65,0,0,1,.29.06Z"/><path class="cls-26" d="M125.74,380.64a1.86,1.86,0,0,1-.09-.49,1.19,1.19,0,0,1-1,.57,1.27,1.27,0,0,1-1-.34,1.31,1.31,0,0,1-.35-1,1.37,1.37,0,0,1,.47-1.09,2,2,0,0,1,1.28-.42h.54v-.48a.75.75,0,0,0-.18-.57.73.73,0,0,0-.54-.17.77.77,0,0,0-.55.19.71.71,0,0,0-.2.51h-.74a1.16,1.16,0,0,1,.2-.66,1.47,1.47,0,0,1,.55-.5,1.65,1.65,0,0,1,.77-.18,1.47,1.47,0,0,1,1.06.35,1.36,1.36,0,0,1,.37,1v2.28a2.76,2.76,0,0,0,.14.91v.06Zm-1-.59a1,1,0,0,0,.51-.15.85.85,0,0,0,.36-.37v-1.08h-.41a1.36,1.36,0,0,0-.83.24.73.73,0,0,0-.31.63.85.85,0,0,0,.15.56A.68.68,0,0,0,124.76,380.05Z"/><path class="cls-26" d="M127.36,378.18a2.7,2.7,0,0,1,.39-1.59,1.28,1.28,0,0,1,1.12-.55,1.16,1.16,0,0,1,1,.53v-2.34h.74v6.41h-.68l0-.48a1.14,1.14,0,0,1-1,.56,1.31,1.31,0,0,1-1.1-.54,2.61,2.61,0,0,1-.4-1.54Zm.74.42a2.13,2.13,0,0,0,.22,1.11.81.81,0,0,0,.74.36.89.89,0,0,0,.82-.55v-2.28a.89.89,0,0,0-.82-.54.81.81,0,0,0-.73.35,2.12,2.12,0,0,0-.23,1.1Z"/><path class="cls-26" d="M132.61,374.93a.47.47,0,0,1-.11.31.38.38,0,0,1-.31.13.41.41,0,0,1-.32-.13.46.46,0,0,1-.1-.31.49.49,0,0,1,.1-.32.38.38,0,0,1,.32-.13.36.36,0,0,1,.31.13A.5.5,0,0,1,132.61,374.93Zm-.06,5.71h-.74v-4.52h.74Z"/><path class="cls-26" d="M137,378.6a2.67,2.67,0,0,1-.39,1.6,1.27,1.27,0,0,1-1.09.52,1.2,1.2,0,0,1-1.05-.51v2.17h-.73v-6.26h.66l0,.51a1.2,1.2,0,0,1,1.07-.59,1.27,1.27,0,0,1,1.11.52,2.78,2.78,0,0,1,.38,1.55Zm-.74-.42a2.15,2.15,0,0,0-.23-1.12.84.84,0,0,0-.75-.36.86.86,0,0,0-.81.53v2.35a.87.87,0,0,0,.81.51.82.82,0,0,0,.74-.36,2,2,0,0,0,.24-1.1Z"/><path class="cls-26" d="M138.78,374.93a.46.46,0,0,1-.1.31.41.41,0,0,1-.32.13.39.39,0,0,1-.31-.13.47.47,0,0,1-.11-.31.5.5,0,0,1,.11-.32.36.36,0,0,1,.31-.13.38.38,0,0,1,.32.13A.49.49,0,0,1,138.78,374.93Zm-.06,5.71H138v-4.52h.73Z"/><path class="cls-26" d="M142.08,379.49a.54.54,0,0,0-.18-.41,2.44,2.44,0,0,0-.69-.4,4.43,4.43,0,0,1-.84-.43,1.24,1.24,0,0,1-.37-.39,1.13,1.13,0,0,1-.12-.54,1.2,1.2,0,0,1,.4-.91,1.46,1.46,0,0,1,1-.37,1.44,1.44,0,0,1,1.06.39,1.27,1.27,0,0,1,.4,1H142a.72.72,0,0,0-.21-.52.69.69,0,0,0-.52-.21.76.76,0,0,0-.51.16.62.62,0,0,0-.18.46.48.48,0,0,0,.13.36,2.53,2.53,0,0,0,.65.36,3,3,0,0,1,1.12.63,1.06,1.06,0,0,1,.3.78,1.18,1.18,0,0,1-.4.94,1.85,1.85,0,0,1-2.23-.05,1.31,1.31,0,0,1-.44-1h.74a.89.89,0,0,0,1.4.64A.55.55,0,0,0,142.08,379.49Z"/><path class="cls-26" d="M145.35,380.09a.8.8,0,0,0,.59-.22.94.94,0,0,0,.24-.65h.7a1.57,1.57,0,0,1-.46,1.08,1.49,1.49,0,0,1-1.07.42,1.57,1.57,0,0,1-1.28-.52,2.46,2.46,0,0,1-.44-1.58v-.49a2.44,2.44,0,0,1,.44-1.56,1.57,1.57,0,0,1,1.28-.53,1.45,1.45,0,0,1,1.1.44,1.8,1.8,0,0,1,.43,1.2h-.7a1.23,1.23,0,0,0-.24-.75.72.72,0,0,0-.59-.25.85.85,0,0,0-.74.32,1.88,1.88,0,0,0-.24,1.06v.58a2.06,2.06,0,0,0,.23,1.12A.87.87,0,0,0,145.35,380.09Z"/><path class="cls-26" d="M148.58,374.93a.46.46,0,0,1-.1.31.41.41,0,0,1-.32.13.39.39,0,0,1-.31-.13.46.46,0,0,1-.1-.31.49.49,0,0,1,.1-.32.36.36,0,0,1,.31-.13.38.38,0,0,1,.32.13A.49.49,0,0,1,148.58,374.93Zm-.05,5.71h-.74v-4.52h.74Z"/><path class="cls-26" d="M150.38,376.12l0,.49a1.33,1.33,0,0,1,1.1-.57c.8,0,1.21.53,1.22,1.6v3H152v-3a1.3,1.3,0,0,0-.17-.75.65.65,0,0,0-.54-.22.74.74,0,0,0-.49.18,1.15,1.15,0,0,0-.35.48v3.28h-.74v-4.52Z"/><path class="cls-26" d="M153.68,378.18a2.8,2.8,0,0,1,.38-1.6,1.29,1.29,0,0,1,1.12-.54,1.16,1.16,0,0,1,1,.59l0-.51h.67v4.56a1.82,1.82,0,0,1-.43,1.29,1.59,1.59,0,0,1-1.2.45,1.91,1.91,0,0,1-.75-.17,1.45,1.45,0,0,1-.62-.4l.3-.51a1.4,1.4,0,0,0,1,.45c.62,0,.93-.34.95-1v-.58a1.16,1.16,0,0,1-1,.52,1.27,1.27,0,0,1-1.09-.52,2.54,2.54,0,0,1-.41-1.52Zm.74.42a2.13,2.13,0,0,0,.22,1.11.79.79,0,0,0,.73.36.89.89,0,0,0,.83-.56v-2.26a.89.89,0,0,0-.82-.55.81.81,0,0,0-.73.35,2.12,2.12,0,0,0-.23,1.1Z"/><path class="cls-26" d="M161.61,380.72a1.66,1.66,0,0,1-1.3-.5,2.14,2.14,0,0,1-.45-1.47v-.55a2.49,2.49,0,0,1,.44-1.58,1.44,1.44,0,0,1,1.23-.58,1.4,1.4,0,0,1,1.18.51,2.55,2.55,0,0,1,.4,1.57v.48h-2.52v.11a1.65,1.65,0,0,0,.27,1.05,1,1,0,0,0,.79.33,1.26,1.26,0,0,0,.57-.12,1.31,1.31,0,0,0,.47-.39l.38.47A1.66,1.66,0,0,1,161.61,380.72Zm-.08-4a.76.76,0,0,0-.68.31,1.86,1.86,0,0,0-.26,1h1.78v-.1a1.68,1.68,0,0,0-.23-.92A.71.71,0,0,0,161.53,376.68Z"/><path class="cls-26" d="M164.79,380.64h-.73v-6.41h.73Z"/><path class="cls-26" d="M166.81,374.93a.46.46,0,0,1-.1.31.41.41,0,0,1-.32.13.39.39,0,0,1-.31-.13.47.47,0,0,1-.11-.31.5.5,0,0,1,.11-.32.43.43,0,0,1,.62,0A.5.5,0,0,1,166.81,374.93Zm-.06,5.71H166v-4.52h.74Z"/><path class="cls-26" d="M168.88,375v1.09h.68v.6h-.68v2.81a.72.72,0,0,0,.09.4.34.34,0,0,0,.3.14,1,1,0,0,0,.3-.05v.62a1.53,1.53,0,0,1-.52.08.76.76,0,0,1-.66-.31,1.42,1.42,0,0,1-.23-.88v-2.81h-.69v-.6h.69V375Z"/><path class="cls-26" d="M170.45,381.85l-.44-.3a2,2,0,0,0,.41-1.13v-.69h.75v.6a2.07,2.07,0,0,1-.2.85A2,2,0,0,1,170.45,381.85Z"/><path class="cls-26" d="M176.27,379.49a.54.54,0,0,0-.18-.41,2.44,2.44,0,0,0-.69-.4,4.43,4.43,0,0,1-.84-.43,1,1,0,0,1-.49-.93,1.17,1.17,0,0,1,.4-.91,1.63,1.63,0,0,1,2.09,0,1.27,1.27,0,0,1,.4,1h-.73a.72.72,0,0,0-.21-.52.69.69,0,0,0-.52-.21.74.74,0,0,0-.51.16.62.62,0,0,0-.18.46.48.48,0,0,0,.13.36,2.53,2.53,0,0,0,.65.36,3,3,0,0,1,1.12.63,1.06,1.06,0,0,1,.3.78,1.18,1.18,0,0,1-.41.94,1.56,1.56,0,0,1-1.08.35,1.6,1.6,0,0,1-1.14-.4,1.31,1.31,0,0,1-.44-1h.74a.81.81,0,0,0,.23.59.84.84,0,0,0,.61.21.85.85,0,0,0,.56-.16A.55.55,0,0,0,176.27,379.49Z"/><path class="cls-26" d="M179.58,380.72a1.62,1.62,0,0,1-1.29-.5,2.19,2.19,0,0,1-.46-1.47v-.55a2.56,2.56,0,0,1,.44-1.58,1.46,1.46,0,0,1,1.23-.58,1.42,1.42,0,0,1,1.19.51,2.62,2.62,0,0,1,.4,1.57v.48h-2.52v.11a1.65,1.65,0,0,0,.27,1.05,1,1,0,0,0,.79.33,1.32,1.32,0,0,0,.57-.12,1.4,1.4,0,0,0,.47-.39l.38.47A1.68,1.68,0,0,1,179.58,380.72Zm-.08-4a.77.77,0,0,0-.68.31,1.86,1.86,0,0,0-.25,1h1.78v-.1a1.77,1.77,0,0,0-.23-.92A.73.73,0,0,0,179.5,376.68Z"/><path class="cls-26" d="M181.82,378.18a2.7,2.7,0,0,1,.39-1.59,1.28,1.28,0,0,1,1.12-.55,1.16,1.16,0,0,1,1,.53v-2.34h.74v6.41h-.68l0-.48a1.14,1.14,0,0,1-1,.56,1.28,1.28,0,0,1-1.09-.54,2.54,2.54,0,0,1-.41-1.54Zm.74.42a2.13,2.13,0,0,0,.22,1.11.81.81,0,0,0,.74.36.89.89,0,0,0,.82-.55v-2.28a.89.89,0,0,0-.82-.54.81.81,0,0,0-.73.35,2.12,2.12,0,0,0-.23,1.1Z"/><path class="cls-26" d="M188,378.18a2.7,2.7,0,0,1,.39-1.59,1.28,1.28,0,0,1,1.12-.55,1.16,1.16,0,0,1,1,.53v-2.34h.74v6.41h-.68l0-.48a1.14,1.14,0,0,1-1,.56,1.31,1.31,0,0,1-1.1-.54,2.61,2.61,0,0,1-.4-1.54Zm.74.42a2.13,2.13,0,0,0,.22,1.11.81.81,0,0,0,.74.36.89.89,0,0,0,.82-.55v-2.28a.89.89,0,0,0-.82-.54.81.81,0,0,0-.73.35,2.12,2.12,0,0,0-.23,1.1Z"/><path class="cls-26" d="M193.27,374.93a.47.47,0,0,1-.11.31.39.39,0,0,1-.31.13.41.41,0,0,1-.32-.13.46.46,0,0,1-.1-.31.49.49,0,0,1,.1-.32.38.38,0,0,1,.32-.13.36.36,0,0,1,.31.13A.5.5,0,0,1,193.27,374.93Zm-.06,5.71h-.74v-4.52h.74Z"/><path class="cls-26" d="M196.7,380.64a1.47,1.47,0,0,1-.1-.49,1.18,1.18,0,0,1-1,.57,1.18,1.18,0,0,1-1.3-1.31,1.36,1.36,0,0,1,.46-1.09,2,2,0,0,1,1.28-.42h.55v-.48a.63.63,0,0,0-.73-.74.76.76,0,0,0-.54.19.68.68,0,0,0-.21.51h-.74a1.17,1.17,0,0,1,.21-.66,1.4,1.4,0,0,1,.55-.5,1.62,1.62,0,0,1,.77-.18,1.46,1.46,0,0,1,1,.35,1.32,1.32,0,0,1,.37,1v2.28a2.76,2.76,0,0,0,.14.91v.06Zm-1-.59a1,1,0,0,0,.52-.15,1,1,0,0,0,.36-.37v-1.08h-.42a1.36,1.36,0,0,0-.83.24.75.75,0,0,0-.31.63.85.85,0,0,0,.16.56A.65.65,0,0,0,195.71,380.05Z"/><path class="cls-26" d="M199.16,376.12l0,.42a1.36,1.36,0,0,1,1.09-.5,1.09,1.09,0,0,1,1.06.66,1.32,1.32,0,0,1,1.18-.66c.83,0,1.26.52,1.28,1.56v3h-.74v-3a1.21,1.21,0,0,0-.17-.73.69.69,0,0,0-.59-.24.65.65,0,0,0-.55.26,1.14,1.14,0,0,0-.24.66v3h-.74v-3c0-.63-.27-.94-.77-.94a.78.78,0,0,0-.78.56v3.38h-.74v-4.52Z"/><path class="cls-26" d="M207.55,376.12l0,.49a1.33,1.33,0,0,1,1.1-.57c.8,0,1.21.53,1.22,1.6v3h-.74v-3a1.3,1.3,0,0,0-.17-.75.65.65,0,0,0-.54-.22.74.74,0,0,0-.49.18,1.15,1.15,0,0,0-.35.48v3.28h-.74v-4.52Z"/><path class="cls-26" d="M210.84,378.17a2.34,2.34,0,0,1,.48-1.55,1.55,1.55,0,0,1,1.26-.58,1.59,1.59,0,0,1,1.26.56,2.31,2.31,0,0,1,.49,1.52v.48a2.39,2.39,0,0,1-.47,1.55,1.71,1.71,0,0,1-2.53,0,2.27,2.27,0,0,1-.49-1.5Zm.74.43a2,2,0,0,0,.27,1.1.86.86,0,0,0,.74.39c.65,0,1-.47,1-1.41v-.51a1.93,1.93,0,0,0-.27-1.09.86.86,0,0,0-.74-.4.84.84,0,0,0-.73.4,1.93,1.93,0,0,0-.27,1.09Z"/><path class="cls-26" d="M216,376.12l0,.49a1.33,1.33,0,0,1,1.1-.57c.8,0,1.2.53,1.22,1.6v3h-.74v-3a1.21,1.21,0,0,0-.18-.75.61.61,0,0,0-.53-.22.74.74,0,0,0-.49.18,1.27,1.27,0,0,0-.36.48v3.28h-.74v-4.52Z"/><path class="cls-26" d="M221.73,380.25a1.28,1.28,0,0,1-1.08.47,1.07,1.07,0,0,1-.92-.42,2,2,0,0,1-.32-1.23v-2.95h.73V379c0,.71.22,1.06.64,1.06a.93.93,0,0,0,.93-.6v-3.35h.73v4.52h-.7Z"/><path class="cls-26" d="M224.25,376.12l0,.42a1.35,1.35,0,0,1,1.09-.5,1.06,1.06,0,0,1,1,.66,1.35,1.35,0,0,1,1.19-.66c.83,0,1.26.52,1.28,1.56v3h-.74v-3a1.29,1.29,0,0,0-.17-.73.7.7,0,0,0-.6-.24.65.65,0,0,0-.54.26,1.14,1.14,0,0,0-.24.66v3h-.74v-3c0-.63-.27-.94-.77-.94a.8.8,0,0,0-.79.56v3.38h-.73v-4.52Z"/><path class="cls-26" d="M230.68,376.12l0,.42a1.36,1.36,0,0,1,1.09-.5,1.08,1.08,0,0,1,1.06.66A1.33,1.33,0,0,1,234,376c.83,0,1.26.52,1.28,1.56v3h-.74v-3a1.21,1.21,0,0,0-.17-.73.69.69,0,0,0-.59-.24.65.65,0,0,0-.55.26,1.14,1.14,0,0,0-.24.66v3h-.74v-3c0-.63-.26-.94-.77-.94a.78.78,0,0,0-.78.56v3.38H230v-4.52Z"/><path class="cls-26" d="M237.66,379.41l.82-3.29h.78l-1.48,5.16a1.89,1.89,0,0,1-.47.88.92.92,0,0,1-.69.31,1.63,1.63,0,0,1-.38-.07v-.63l.16,0a.76.76,0,0,0,.5-.15,1.14,1.14,0,0,0,.3-.53l.14-.51L236,376.12h.81Z"/><path class="cls-26" d="M107.65,386.38l0,.49a1.32,1.32,0,0,1,1.1-.57c.8,0,1.2.53,1.21,1.6v3h-.73v-3a1.21,1.21,0,0,0-.18-.75.63.63,0,0,0-.53-.22.74.74,0,0,0-.49.18,1.27,1.27,0,0,0-.36.48v3.28H107v-4.52Z"/><path class="cls-26" d="M112,385.19a.47.47,0,0,1-.11.31.39.39,0,0,1-.31.12.41.41,0,0,1-.32-.12.46.46,0,0,1-.1-.31.49.49,0,0,1,.1-.32.38.38,0,0,1,.32-.13.37.37,0,0,1,.31.13A.5.5,0,0,1,112,385.19Zm-.06,5.71h-.74v-4.52h.74Z"/><path class="cls-26" d="M116.32,388.86a2.71,2.71,0,0,1-.38,1.59,1.25,1.25,0,0,1-1.1.53,1.17,1.17,0,0,1-1.08-.61l0,.53h-.68v-6.41h.74v2.39a1.15,1.15,0,0,1,1-.58,1.29,1.29,0,0,1,1.12.53,2.81,2.81,0,0,1,.37,1.58Zm-.73-.42a2.18,2.18,0,0,0-.23-1.15.81.81,0,0,0-.72-.33.89.89,0,0,0-.85.61v2.15a.9.9,0,0,0,.86.61.8.8,0,0,0,.72-.35,2.28,2.28,0,0,0,.22-1.09Z"/><path class="cls-26" d="M118,386.85a1.31,1.31,0,0,1,1.08-.55c.8,0,1.2.53,1.22,1.6v3h-.74v-3a1.21,1.21,0,0,0-.18-.75.61.61,0,0,0-.53-.22.74.74,0,0,0-.49.18,1.27,1.27,0,0,0-.36.48v3.28h-.73v-6.41H118Z"/><path class="cls-26" d="M125,391a1.65,1.65,0,0,1-1.3-.5,2.2,2.2,0,0,1-.46-1.48v-.54a2.61,2.61,0,0,1,.44-1.59,1.48,1.48,0,0,1,1.23-.57,1.41,1.41,0,0,1,1.19.51,2.62,2.62,0,0,1,.4,1.57v.48H124V389a1.65,1.65,0,0,0,.27,1,1,1,0,0,0,.79.33,1.26,1.26,0,0,0,.57-.12,1.4,1.4,0,0,0,.47-.39l.38.47A1.67,1.67,0,0,1,125,391Zm-.09-4.05a.79.79,0,0,0-.68.32,2,2,0,0,0-.25,1h1.78v-.1a1.77,1.77,0,0,0-.23-.92A.74.74,0,0,0,124.88,386.93Z"/><path class="cls-26" d="M129.66,390.5a1.27,1.27,0,0,1-1.07.48,1.09,1.09,0,0,1-.93-.42,2.1,2.1,0,0,1-.32-1.23v-2.95h.74v2.89c0,.71.21,1.06.63,1.06a.93.93,0,0,0,.93-.6v-3.35h.74v4.52h-.7Z"/><path class="cls-26" d="M132.34,385.19a.46.46,0,0,1-.1.31.41.41,0,0,1-.32.12.39.39,0,0,1-.31-.12.47.47,0,0,1-.11-.31.5.5,0,0,1,.11-.32.36.36,0,0,1,.31-.13.38.38,0,0,1,.32.13A.49.49,0,0,1,132.34,385.19Zm-.05,5.71h-.74v-4.52h.74Z"/><path class="cls-26" d="M135.64,389.74a.57.57,0,0,0-.18-.41,3,3,0,0,0-.69-.4,4,4,0,0,1-.84-.42,1.17,1.17,0,0,1-.37-.4,1.09,1.09,0,0,1-.12-.53,1.19,1.19,0,0,1,.4-.91,1.64,1.64,0,0,1,2.09,0,1.31,1.31,0,0,1,.4,1h-.73a.75.75,0,0,0-.2-.52.73.73,0,0,0-.53-.22.77.77,0,0,0-.51.17.61.61,0,0,0-.18.45.49.49,0,0,0,.13.37,2.47,2.47,0,0,0,.66.36,3.08,3.08,0,0,1,1.11.63,1.06,1.06,0,0,1,.3.78,1.18,1.18,0,0,1-.4.94,1.85,1.85,0,0,1-2.23-.05,1.31,1.31,0,0,1-.44-1h.74a.76.76,0,0,0,.84.8.83.83,0,0,0,.56-.16A.55.55,0,0,0,135.64,389.74Z"/><path class="cls-26" d="M138,386.38v.42a1.36,1.36,0,0,1,1.09-.5,1.07,1.07,0,0,1,1.06.66,1.34,1.34,0,0,1,1.19-.66c.83,0,1.25.52,1.27,1.56v3h-.73v-3a1.21,1.21,0,0,0-.18-.73.77.77,0,0,0-1.13,0,1.2,1.2,0,0,0-.24.66v3h-.75v-3c0-.62-.26-.93-.76-.93a.8.8,0,0,0-.79.55v3.39h-.74v-4.52Z"/><path class="cls-26" d="M143.62,388.43a2.38,2.38,0,0,1,.48-1.56,1.57,1.57,0,0,1,1.26-.57,1.59,1.59,0,0,1,1.26.56,2.31,2.31,0,0,1,.49,1.52v.48a2.39,2.39,0,0,1-.47,1.55,1.57,1.57,0,0,1-1.27.57,1.55,1.55,0,0,1-1.26-.55,2.27,2.27,0,0,1-.49-1.5Zm.74.43a2,2,0,0,0,.27,1.1.86.86,0,0,0,.74.39c.65,0,1-.47,1-1.41v-.51a1.93,1.93,0,0,0-.27-1.09.87.87,0,0,0-.74-.41.85.85,0,0,0-.73.41,1.93,1.93,0,0,0-.27,1.09Z"/><path class="cls-26" d="M147.91,388.44a2.7,2.7,0,0,1,.39-1.59,1.28,1.28,0,0,1,1.12-.55,1.16,1.16,0,0,1,1,.53v-2.34h.74v6.41h-.68l0-.48a1.18,1.18,0,0,1-1,.56,1.28,1.28,0,0,1-1.1-.54,2.61,2.61,0,0,1-.41-1.54Zm.74.42a2.15,2.15,0,0,0,.22,1.11.81.81,0,0,0,.74.36.87.87,0,0,0,.82-.56V387.5a.89.89,0,0,0-.82-.54.79.79,0,0,0-.73.35,2.1,2.1,0,0,0-.23,1.1Z"/><path class="cls-26" d="M155.23,385.29v1.09h.68v.6h-.68v2.81a.74.74,0,0,0,.09.4.34.34,0,0,0,.3.14,1,1,0,0,0,.3-.05v.62a1.51,1.51,0,0,1-.51.08.76.76,0,0,1-.67-.31,1.42,1.42,0,0,1-.23-.88V387h-.69v-.6h.69v-1.09Z"/><path class="cls-26" d="M157.65,385.19a.47.47,0,0,1-.11.31.39.39,0,0,1-.32.12.39.39,0,0,1-.31-.12.46.46,0,0,1-.1-.31.49.49,0,0,1,.1-.32.36.36,0,0,1,.31-.13.38.38,0,0,1,.32.13A.5.5,0,0,1,157.65,385.19Zm-.06,5.71h-.74v-4.52h.74Z"/><path class="cls-26" d="M159.44,386.38l0,.49a1.3,1.3,0,0,1,1.09-.57c.8,0,1.21.53,1.22,1.6v3H161v-3a1.3,1.3,0,0,0-.17-.75.65.65,0,0,0-.54-.22.74.74,0,0,0-.49.18,1.25,1.25,0,0,0-.35.48v3.28h-.74v-4.52Z"/><path class="cls-26" d="M164.45,390.35a.78.78,0,0,0,.59-.22,1,1,0,0,0,.24-.65h.7a1.57,1.57,0,0,1-.46,1.08,1.49,1.49,0,0,1-1.07.42,1.58,1.58,0,0,1-1.28-.52,2.46,2.46,0,0,1-.44-1.58v-.49a2.44,2.44,0,0,1,.44-1.56,1.57,1.57,0,0,1,1.28-.53,1.44,1.44,0,0,1,1.1.44,1.8,1.8,0,0,1,.43,1.2h-.7a1.12,1.12,0,0,0-.24-.75.73.73,0,0,0-.59-.26.84.84,0,0,0-.73.33,1.87,1.87,0,0,0-.25,1.06v.58a2,2,0,0,0,.24,1.12A.85.85,0,0,0,164.45,390.35Z"/><path class="cls-26" d="M167.69,385.19a.47.47,0,0,1-.11.31.37.37,0,0,1-.31.12.41.41,0,0,1-.32-.12.46.46,0,0,1-.1-.31.49.49,0,0,1,.1-.32.38.38,0,0,1,.32-.13.36.36,0,0,1,.31.13A.5.5,0,0,1,167.69,385.19Zm-.06,5.71h-.74v-4.52h.74Z"/><path class="cls-26" d="M168.64,388.44a2.7,2.7,0,0,1,.39-1.59,1.28,1.28,0,0,1,1.12-.55,1.16,1.16,0,0,1,1,.53v-2.34h.74v6.41h-.68l0-.48a1.17,1.17,0,0,1-1,.56,1.31,1.31,0,0,1-1.1-.54,2.61,2.61,0,0,1-.4-1.54Zm.74.42a2.15,2.15,0,0,0,.22,1.11.81.81,0,0,0,.74.36.88.88,0,0,0,.82-.56V387.5a.89.89,0,0,0-.82-.54.79.79,0,0,0-.73.35,2.1,2.1,0,0,0-.23,1.1Z"/><path class="cls-26" d="M175.34,390.5a1.29,1.29,0,0,1-1.08.48,1.07,1.07,0,0,1-.92-.42,2,2,0,0,1-.32-1.23v-2.95h.73v2.89c0,.71.22,1.06.64,1.06a.93.93,0,0,0,.93-.6v-3.35h.73v4.52h-.7Z"/><path class="cls-26" d="M177.86,386.38l0,.49a1.33,1.33,0,0,1,1.1-.57c.8,0,1.2.53,1.22,1.6v3h-.74v-3a1.21,1.21,0,0,0-.18-.75.61.61,0,0,0-.53-.22.74.74,0,0,0-.49.18,1.27,1.27,0,0,0-.36.48v3.28h-.73v-4.52Z"/><path class="cls-26" d="M182.27,385.29v1.09H183v.6h-.68v2.81a.74.74,0,0,0,.09.4.34.34,0,0,0,.3.14,1.11,1.11,0,0,0,.3-.05v.62a1.53,1.53,0,0,1-.52.08.76.76,0,0,1-.66-.31,1.42,1.42,0,0,1-.23-.88V387h-.69v-.6h.69v-1.09Z"/><path class="cls-26" d="M188.09,390.5A1.27,1.27,0,0,1,187,391a1.09,1.09,0,0,1-.93-.42,2.1,2.1,0,0,1-.32-1.23v-2.95h.74v2.89c0,.71.21,1.06.63,1.06a.93.93,0,0,0,.93-.6v-3.35h.74v4.52h-.7Z"/><path class="cls-26" d="M190.89,385.29v1.09h.68v.6h-.68v2.81a.86.86,0,0,0,.08.4.34.34,0,0,0,.3.14,1,1,0,0,0,.3-.05v.62a1.47,1.47,0,0,1-.51.08.77.77,0,0,1-.67-.31,1.49,1.49,0,0,1-.23-.88V387h-.69v-.6h.69v-1.09Z"/><path class="cls-26" d="M195.2,390.9h-.74v-6.41h.74Z"/><path class="cls-26" d="M198.68,390.9a1.86,1.86,0,0,1-.09-.49,1.18,1.18,0,0,1-1,.57,1.3,1.3,0,0,1-1-.34,1.31,1.31,0,0,1-.35-1,1.37,1.37,0,0,1,.47-1.09,2,2,0,0,1,1.28-.42h.55v-.48a.75.75,0,0,0-.18-.57.88.88,0,0,0-1.09,0,.68.68,0,0,0-.21.51h-.74a1.27,1.27,0,0,1,.2-.67,1.41,1.41,0,0,1,.56-.49,1.62,1.62,0,0,1,.77-.18,1.5,1.5,0,0,1,1.05.34,1.34,1.34,0,0,1,.37,1v2.28a2.66,2.66,0,0,0,.14.9v.07Zm-1-.59a1,1,0,0,0,.52-.15,1,1,0,0,0,.36-.37v-1.08h-.42a1.36,1.36,0,0,0-.83.23.76.76,0,0,0-.31.64.8.8,0,0,0,.16.56A.67.67,0,0,0,197.7,390.31Z"/><path class="cls-26" d="M200.3,388.43a2.38,2.38,0,0,1,.48-1.56,1.69,1.69,0,0,1,2.52,0,2.26,2.26,0,0,1,.49,1.52v.48a2.33,2.33,0,0,1-.47,1.55,1.71,1.71,0,0,1-2.53,0,2.33,2.33,0,0,1-.49-1.5Zm.74.43a2,2,0,0,0,.27,1.1.87.87,0,0,0,.74.39c.65,0,1-.47,1-1.41v-.51a1.93,1.93,0,0,0-.28-1.09.86.86,0,0,0-1.47,0,1.93,1.93,0,0,0-.27,1.09Z"/><path class="cls-26" d="M206.61,387.08a1.69,1.69,0,0,0-.33,0,.8.8,0,0,0-.79.62v3.23h-.74v-4.52h.71l0,.46a.9.9,0,0,1,.84-.54.65.65,0,0,1,.29.06Z"/><path class="cls-26" d="M209,391a1.62,1.62,0,0,1-1.29-.5,2.15,2.15,0,0,1-.46-1.48v-.54a2.61,2.61,0,0,1,.44-1.59,1.46,1.46,0,0,1,1.23-.57,1.39,1.39,0,0,1,1.18.51,2.54,2.54,0,0,1,.41,1.57v.48h-2.53V389a1.65,1.65,0,0,0,.28,1,1,1,0,0,0,.78.33,1.34,1.34,0,0,0,.58-.12,1.37,1.37,0,0,0,.46-.39l.39.47A1.68,1.68,0,0,1,209,391Zm-.08-4.05a.78.78,0,0,0-.68.32,1.86,1.86,0,0,0-.25,1h1.78v-.1a1.67,1.67,0,0,0-.24-.92A.72.72,0,0,0,208.88,386.93Z"/><path class="cls-26" d="M213,391a1.63,1.63,0,0,1-1.3-.5,2.2,2.2,0,0,1-.46-1.48v-.54a2.61,2.61,0,0,1,.44-1.59,1.48,1.48,0,0,1,1.23-.57,1.41,1.41,0,0,1,1.19.51,2.62,2.62,0,0,1,.4,1.57v.48H212V389a1.65,1.65,0,0,0,.27,1,1,1,0,0,0,.79.33,1.29,1.29,0,0,0,.57-.12,1.4,1.4,0,0,0,.47-.39l.38.47A1.67,1.67,0,0,1,213,391Zm-.09-4.05a.79.79,0,0,0-.68.32,1.86,1.86,0,0,0-.25,1h1.78v-.1a1.77,1.77,0,0,0-.23-.92A.74.74,0,0,0,212.88,386.93Z"/><path class="cls-26" d="M216.32,385.29v1.09H217v.6h-.68v2.81a.74.74,0,0,0,.09.4.34.34,0,0,0,.3.14,1,1,0,0,0,.3-.05v.62a1.53,1.53,0,0,1-.52.08.76.76,0,0,1-.66-.31,1.42,1.42,0,0,1-.23-.88V387h-.69v-.6h.69v-1.09Z"/><path class="cls-26" d="M219.68,388.44a2.7,2.7,0,0,1,.39-1.59,1.29,1.29,0,0,1,1.12-.55,1.16,1.16,0,0,1,1,.53v-2.34h.74v6.41h-.67l0-.48a1.17,1.17,0,0,1-1,.56,1.29,1.29,0,0,1-1.1-.54,2.61,2.61,0,0,1-.41-1.54Zm.74.42a2.14,2.14,0,0,0,.23,1.11.79.79,0,0,0,.73.36.87.87,0,0,0,.82-.56V387.5a.88.88,0,0,0-.81-.54.8.8,0,0,0-.74.35,2.1,2.1,0,0,0-.23,1.1Z"/><path class="cls-26" d="M223.92,388.43a2.38,2.38,0,0,1,.48-1.56,1.57,1.57,0,0,1,1.26-.57,1.6,1.6,0,0,1,1.27.56,2.31,2.31,0,0,1,.49,1.52v.48a2.34,2.34,0,0,1-.48,1.55,1.71,1.71,0,0,1-2.53,0,2.38,2.38,0,0,1-.49-1.5Zm.74.43a1.89,1.89,0,0,0,.28,1.1.84.84,0,0,0,.73.39c.65,0,1-.47,1-1.41v-.51a1.85,1.85,0,0,0-.28-1.09.85.85,0,0,0-.74-.41.83.83,0,0,0-.72.41,1.85,1.85,0,0,0-.28,1.09Z"/><path class="cls-26" d="M229.17,390.9h-.74v-6.41h.74Z"/><path class="cls-26" d="M230.17,388.43a2.38,2.38,0,0,1,.48-1.56,1.57,1.57,0,0,1,1.26-.57,1.6,1.6,0,0,1,1.27.56,2.31,2.31,0,0,1,.49,1.52v.48a2.34,2.34,0,0,1-.48,1.55,1.71,1.71,0,0,1-2.53,0,2.33,2.33,0,0,1-.49-1.5Zm.74.43a1.89,1.89,0,0,0,.28,1.1.84.84,0,0,0,.73.39c.65,0,1-.47,1-1.41v-.51a1.85,1.85,0,0,0-.28-1.09.85.85,0,0,0-.74-.41.83.83,0,0,0-.72.41,1.85,1.85,0,0,0-.28,1.09Z"/><path class="cls-26" d="M236.49,387.08a1.87,1.87,0,0,0-.34,0,.8.8,0,0,0-.79.62v3.23h-.74v-4.52h.72v.46a.93.93,0,0,1,.84-.54.62.62,0,0,1,.29.06Z"/><path class="cls-26" d="M238.84,391a1.63,1.63,0,0,1-1.3-.5,2.2,2.2,0,0,1-.46-1.48v-.54a2.61,2.61,0,0,1,.44-1.59,1.48,1.48,0,0,1,1.23-.57,1.41,1.41,0,0,1,1.19.51,2.62,2.62,0,0,1,.4,1.57v.48h-2.52V389a1.65,1.65,0,0,0,.27,1,1,1,0,0,0,.79.33,1.29,1.29,0,0,0,.57-.12,1.4,1.4,0,0,0,.47-.39l.38.47A1.67,1.67,0,0,1,238.84,391Zm-.09-4.05a.79.79,0,0,0-.68.32,1.86,1.86,0,0,0-.25,1h1.78v-.1a1.77,1.77,0,0,0-.23-.92A.74.74,0,0,0,238.75,386.93Z"/><path class="cls-26" d="M113.26,396.64l0,.42a1.35,1.35,0,0,1,1.09-.5,1.07,1.07,0,0,1,1,.65,1.36,1.36,0,0,1,1.19-.65c.83,0,1.26.52,1.28,1.56v3h-.74v-3a1.33,1.33,0,0,0-.17-.74.7.7,0,0,0-.6-.24.67.67,0,0,0-.54.26,1.2,1.2,0,0,0-.24.66v3h-.75v-3c0-.62-.26-.94-.76-.94a.81.81,0,0,0-.79.56v3.39h-.73v-4.52Z"/><path class="cls-26" d="M121.32,401.16a1.78,1.78,0,0,1-.1-.49,1.17,1.17,0,0,1-1,.57,1.3,1.3,0,0,1-1-.34,1.36,1.36,0,0,1-.34-1,1.39,1.39,0,0,1,.47-1.1,1.94,1.94,0,0,1,1.28-.41h.54v-.48a.79.79,0,0,0-.18-.58.9.9,0,0,0-1.09,0,.66.66,0,0,0-.21.5H119a1.16,1.16,0,0,1,.2-.66,1.45,1.45,0,0,1,.55-.49,1.65,1.65,0,0,1,.77-.18,1.47,1.47,0,0,1,1.06.34,1.38,1.38,0,0,1,.37,1v2.28a2.7,2.7,0,0,0,.14.9v.07Zm-1-.59a1,1,0,0,0,.51-.15.82.82,0,0,0,.36-.38V399h-.42a1.38,1.38,0,0,0-.83.23.77.77,0,0,0-.3.64.85.85,0,0,0,.15.56A.72.72,0,0,0,120.34,400.57Z"/><path class="cls-26" d="M122.94,398.7a2.72,2.72,0,0,1,.39-1.6,1.28,1.28,0,0,1,1.12-.54,1.14,1.14,0,0,1,1,.59l0-.51h.66v4.56a1.78,1.78,0,0,1-.43,1.29,1.55,1.55,0,0,1-1.19.45,2,2,0,0,1-.75-.17,1.59,1.59,0,0,1-.63-.4l.3-.51a1.44,1.44,0,0,0,1,.45c.61,0,.93-.34,1-1v-.59a1.15,1.15,0,0,1-1,.53,1.29,1.29,0,0,1-1.1-.53,2.64,2.64,0,0,1-.41-1.51Zm.74.42a2.14,2.14,0,0,0,.23,1.11.79.79,0,0,0,.73.36.89.89,0,0,0,.83-.57v-2.25a.91.91,0,0,0-.82-.56.81.81,0,0,0-.74.36,2.2,2.2,0,0,0-.23,1.1Z"/><path class="cls-26" d="M128,396.64l0,.49a1.32,1.32,0,0,1,1.1-.57c.8,0,1.2.53,1.21,1.6v3h-.73v-3a1.21,1.21,0,0,0-.18-.75.63.63,0,0,0-.53-.23.8.8,0,0,0-.5.19,1.36,1.36,0,0,0-.35.48v3.28h-.74v-4.52Z"/><path class="cls-26" d="M133.76,401.16a1.86,1.86,0,0,1-.09-.49,1.18,1.18,0,0,1-1,.57,1.3,1.3,0,0,1-1-.34,1.32,1.32,0,0,1-.35-1,1.39,1.39,0,0,1,.47-1.1,1.94,1.94,0,0,1,1.28-.41h.55v-.48a.79.79,0,0,0-.18-.58.8.8,0,0,0-.55-.17.77.77,0,0,0-.54.2.66.66,0,0,0-.21.5h-.74a1.24,1.24,0,0,1,.2-.66,1.45,1.45,0,0,1,.55-.49,1.69,1.69,0,0,1,.78-.18,1.46,1.46,0,0,1,1.05.34,1.38,1.38,0,0,1,.37,1v2.28a2.7,2.7,0,0,0,.14.9v.07Zm-1-.59a1,1,0,0,0,.52-.15.94.94,0,0,0,.36-.38V399h-.42a1.36,1.36,0,0,0-.83.23.76.76,0,0,0-.31.64.8.8,0,0,0,.16.56A.67.67,0,0,0,132.78,400.57Z"/><path class="cls-26" d="M139.82,401.16a1.47,1.47,0,0,1-.1-.49,1.17,1.17,0,0,1-1,.57,1.3,1.3,0,0,1-1-.34,1.32,1.32,0,0,1-.34-1,1.38,1.38,0,0,1,.46-1.1,2,2,0,0,1,1.29-.41h.54v-.48a.63.63,0,0,0-.73-.75.77.77,0,0,0-.54.2.66.66,0,0,0-.21.5h-.74a1.17,1.17,0,0,1,.21-.66,1.38,1.38,0,0,1,.55-.49,1.65,1.65,0,0,1,.77-.18,1.46,1.46,0,0,1,1,.34,1.34,1.34,0,0,1,.37,1v2.28a2.69,2.69,0,0,0,.15.9v.07Zm-1-.59a1,1,0,0,0,.52-.15.94.94,0,0,0,.36-.38V399h-.42a1.36,1.36,0,0,0-.83.23.77.77,0,0,0-.3.64.85.85,0,0,0,.15.56A.69.69,0,0,0,138.83,400.57Z"/><path class="cls-26" d="M142.38,401.16h-.73v-6.41h.73Z"/><path class="cls-26" d="M144.4,395.44a.49.49,0,0,1-.1.32.41.41,0,0,1-.32.12.39.39,0,0,1-.31-.12.5.5,0,0,1-.11-.32.47.47,0,0,1,.11-.31.43.43,0,0,1,.62,0A.44.44,0,0,1,144.4,395.44Zm-.06,5.72h-.74v-4.52h.74Z"/><path class="cls-26" d="M145.35,398.7a2.8,2.8,0,0,1,.38-1.6,1.32,1.32,0,0,1,1.15-.54,1.18,1.18,0,0,1,1,.52l0-.44h.68v6.26h-.74v-2.14a1.18,1.18,0,0,1-1,.48,1.3,1.3,0,0,1-1.12-.53,2.58,2.58,0,0,1-.4-1.55Zm.74.42a2.25,2.25,0,0,0,.23,1.13.83.83,0,0,0,.74.36.89.89,0,0,0,.81-.49v-2.43a.91.91,0,0,0-.8-.5.82.82,0,0,0-.74.37,2.06,2.06,0,0,0-.24,1.11Z"/><path class="cls-26" d="M152.09,400.76a1.29,1.29,0,0,1-1.08.48,1.07,1.07,0,0,1-.92-.42,2.06,2.06,0,0,1-.32-1.24v-2.94h.73v2.89c0,.71.22,1.06.64,1.06a.93.93,0,0,0,.93-.6v-3.35h.73v4.52h-.7Z"/><path class="cls-26" d="M156.24,401.16a1.78,1.78,0,0,1-.1-.49,1.17,1.17,0,0,1-1,.57,1.3,1.3,0,0,1-1-.34,1.36,1.36,0,0,1-.34-1,1.39,1.39,0,0,1,.47-1.1,1.94,1.94,0,0,1,1.28-.41h.54v-.48a.79.79,0,0,0-.18-.58.9.9,0,0,0-1.09,0,.66.66,0,0,0-.21.5h-.73a1.16,1.16,0,0,1,.2-.66,1.45,1.45,0,0,1,.55-.49,1.65,1.65,0,0,1,.77-.18,1.47,1.47,0,0,1,1.06.34,1.38,1.38,0,0,1,.37,1v2.28a2.7,2.7,0,0,0,.14.9v.07Zm-1-.59a1,1,0,0,0,.51-.15.82.82,0,0,0,.36-.38V399h-.42a1.38,1.38,0,0,0-.83.23.77.77,0,0,0-.3.64.85.85,0,0,0,.15.56A.72.72,0,0,0,155.26,400.57Z"/><path class="cls-26" d="M158.71,396.64v.42a1.36,1.36,0,0,1,1.09-.5,1.07,1.07,0,0,1,1.06.65,1.35,1.35,0,0,1,1.19-.65c.83,0,1.25.52,1.27,1.56v3h-.73v-3a1.24,1.24,0,0,0-.18-.74.76.76,0,0,0-1.13,0,1.2,1.2,0,0,0-.24.66v3h-.75v-3c0-.62-.26-.94-.76-.94a.81.81,0,0,0-.79.56v3.39H158v-4.52Z"/><path class="cls-26" d="M168,401.24a1.63,1.63,0,0,1-1.3-.5,2.22,2.22,0,0,1-.46-1.48v-.54a2.59,2.59,0,0,1,.44-1.59,1.48,1.48,0,0,1,1.23-.57,1.43,1.43,0,0,1,1.19.5,2.67,2.67,0,0,1,.4,1.58v.48H167v.11a1.65,1.65,0,0,0,.27,1,1,1,0,0,0,.79.33,1.26,1.26,0,0,0,.57-.12,1.4,1.4,0,0,0,.47-.39l.38.47A1.67,1.67,0,0,1,168,401.24Zm-.09-4.05a.79.79,0,0,0-.68.32,1.84,1.84,0,0,0-.25,1h1.78v-.1a1.77,1.77,0,0,0-.23-.92A.74.74,0,0,0,167.93,397.19Z"/><path class="cls-26" d="M172.27,397.33l-.33,0a.81.81,0,0,0-.8.62v3.23h-.74v-4.52h.72l0,.46a.9.9,0,0,1,.83-.54.67.67,0,0,1,.3.06Z"/><path class="cls-26" d="M175.16,401.16a1.86,1.86,0,0,1-.09-.49,1.18,1.18,0,0,1-1,.57,1.3,1.3,0,0,1-1-.34,1.32,1.32,0,0,1-.35-1,1.39,1.39,0,0,1,.47-1.1,1.94,1.94,0,0,1,1.28-.41h.54v-.48a.84.84,0,0,0-.17-.58.8.8,0,0,0-.55-.17.75.75,0,0,0-.54.2.66.66,0,0,0-.21.5h-.74a1.24,1.24,0,0,1,.2-.66,1.45,1.45,0,0,1,.55-.49,1.66,1.66,0,0,1,.78-.18,1.46,1.46,0,0,1,1,.34,1.38,1.38,0,0,1,.37,1v2.28a2.7,2.7,0,0,0,.14.9v.07Zm-1-.59a1,1,0,0,0,.52-.15.85.85,0,0,0,.35-.38V399h-.41a1.36,1.36,0,0,0-.83.23.76.76,0,0,0-.31.64.8.8,0,0,0,.16.56A.67.67,0,0,0,174.18,400.57Z"/><path class="cls-26" d="M177.9,395.55v1.09h.68v.6h-.68V400a.76.76,0,0,0,.09.41.34.34,0,0,0,.3.14,1,1,0,0,0,.3,0v.62a1.82,1.82,0,0,1-.52.08.76.76,0,0,1-.66-.31,1.43,1.43,0,0,1-.23-.89v-2.8h-.69v-.6h.69v-1.09Z"/><path class="cls-26" d="M182.7,400l.85-3.4h.76L183,401.16h-.56l-1.35-4.52h.75Z"/><path class="cls-26" d="M184.86,398.69a2.44,2.44,0,0,1,.47-1.56,1.57,1.57,0,0,1,1.27-.57,1.59,1.59,0,0,1,1.26.56,2.31,2.31,0,0,1,.49,1.52v.48a2.34,2.34,0,0,1-.48,1.55,1.7,1.7,0,0,1-2.52,0,2.28,2.28,0,0,1-.49-1.51Zm.74.43a1.91,1.91,0,0,0,.27,1.09.84.84,0,0,0,.74.4c.65,0,1-.47,1-1.41v-.51a1.93,1.93,0,0,0-.27-1.09.87.87,0,0,0-.74-.41.84.84,0,0,0-.73.41,1.93,1.93,0,0,0-.27,1.09Z"/><path class="cls-26" d="M190.1,401.16h-.74v-6.41h.74Z"/><path class="cls-26" d="M193.56,400.76a1.26,1.26,0,0,1-1.07.48,1.06,1.06,0,0,1-.92-.42,2.06,2.06,0,0,1-.32-1.24v-2.94H192v2.89c0,.71.21,1.06.64,1.06a.92.92,0,0,0,.92-.6v-3.35h.74v4.52h-.7Z"/><path class="cls-26" d="M196.36,395.55v1.09H197v.6h-.68V400a.76.76,0,0,0,.09.41.34.34,0,0,0,.3.14,1,1,0,0,0,.3,0v.62a1.82,1.82,0,0,1-.52.08.76.76,0,0,1-.66-.31,1.43,1.43,0,0,1-.23-.89v-2.8h-.69v-.6h.69v-1.09Z"/><path class="cls-26" d="M201.18,399.12a2.78,2.78,0,0,1-.38,1.6,1.27,1.27,0,0,1-1.09.52,1.2,1.2,0,0,1-1.05-.51v2.17h-.74v-6.26h.67l0,.5a1.18,1.18,0,0,1,1.06-.58,1.25,1.25,0,0,1,1.11.52,2.68,2.68,0,0,1,.38,1.54Zm-.73-.42a2,2,0,0,0-.24-1.12.8.8,0,0,0-.75-.37.87.87,0,0,0-.8.53v2.35a.86.86,0,0,0,.81.52.82.82,0,0,0,.74-.36,2,2,0,0,0,.24-1.1Z"/><path class="cls-26" d="M204.46,401.16a1.78,1.78,0,0,1-.1-.49,1.17,1.17,0,0,1-1,.57,1.3,1.3,0,0,1-1-.34,1.32,1.32,0,0,1-.34-1,1.39,1.39,0,0,1,.47-1.1,1.94,1.94,0,0,1,1.28-.41h.54v-.48a.79.79,0,0,0-.18-.58.9.9,0,0,0-1.09,0,.66.66,0,0,0-.21.5h-.74a1.17,1.17,0,0,1,.21-.66,1.45,1.45,0,0,1,.55-.49,1.65,1.65,0,0,1,.77-.18,1.49,1.49,0,0,1,1.06.34,1.38,1.38,0,0,1,.37,1v2.28a2.7,2.7,0,0,0,.14.9v.07Zm-1-.59a1,1,0,0,0,.51-.15.82.82,0,0,0,.36-.38V399h-.42a1.38,1.38,0,0,0-.83.23.77.77,0,0,0-.3.64.85.85,0,0,0,.15.56A.72.72,0,0,0,203.48,400.57Z"/><path class="cls-26" d="M207.2,395.55v1.09h.68v.6h-.68V400a.76.76,0,0,0,.09.41.31.31,0,0,0,.3.14,1,1,0,0,0,.29,0v.62a1.82,1.82,0,0,1-.52.08.79.79,0,0,1-.67-.31,1.5,1.5,0,0,1-.23-.89v-2.8h-.68v-.6h.68v-1.09Z"/><path class="cls-26" d="M208.81,400.75a.52.52,0,0,1,.11-.33.56.56,0,0,1,.72,0,.49.49,0,0,1-.72.66A.52.52,0,0,1,208.81,400.75Z"/><path class="cls-26" d="M216.69,395.08v4.32a1.8,1.8,0,0,1-.5,1.35,2.19,2.19,0,0,1-2.75,0,1.82,1.82,0,0,1-.48-1.36v-4.32h.75v4.29a1.37,1.37,0,0,0,.27.92,1.33,1.33,0,0,0,1.68,0,1.37,1.37,0,0,0,.26-.92v-4.29Z"/><path class="cls-26" d="M218.73,395.55v1.09h.68v.6h-.68V400a.76.76,0,0,0,.09.41.34.34,0,0,0,.3.14,1,1,0,0,0,.3,0v.62a1.81,1.81,0,0,1-.51.08.76.76,0,0,1-.67-.31A1.43,1.43,0,0,1,218,400v-2.8h-.69v-.6H218v-1.09Z"/><path class="cls-26" d="M225.62,399.86l.68-3.22H227l-1.1,4.52h-.59l-.88-3.23-.86,3.23H223l-1.09-4.52h.72l.7,3.14.84-3.14h.59Z"/><path class="cls-26" d="M228.66,395.44a.55.55,0,0,1-.1.32.49.49,0,0,1-.64,0,.55.55,0,0,1-.1-.32.52.52,0,0,1,.1-.31.38.38,0,0,1,.32-.13.36.36,0,0,1,.31.13A.49.49,0,0,1,228.66,395.44Zm-.06,5.72h-.74v-4.52h.74Z"/><path class="cls-26" d="M232,400a.55.55,0,0,0-.18-.41,3,3,0,0,0-.69-.4,4.41,4.41,0,0,1-.85-.42,1.23,1.23,0,0,1-.36-.4,1.09,1.09,0,0,1-.12-.53,1.19,1.19,0,0,1,.4-.92,1.66,1.66,0,0,1,2.09,0,1.31,1.31,0,0,1,.4,1h-.73a.7.7,0,0,0-.21-.52.69.69,0,0,0-.52-.22.73.73,0,0,0-.51.17.55.55,0,0,0-.19.45.53.53,0,0,0,.14.37,2.53,2.53,0,0,0,.65.36,3.14,3.14,0,0,1,1.12.63,1.06,1.06,0,0,1,.3.78,1.2,1.2,0,0,1-.41.94,1.61,1.61,0,0,1-1.08.35,1.63,1.63,0,0,1-1.15-.4,1.34,1.34,0,0,1-.44-1h.75a.76.76,0,0,0,.84.8.85.85,0,0,0,.56-.16A.59.59,0,0,0,232,400Z"/><path class="cls-26" d="M234.51,395.44a.49.49,0,0,1-.1.32.41.41,0,0,1-.32.12.39.39,0,0,1-.31-.12.5.5,0,0,1-.11-.32.47.47,0,0,1,.11-.31.36.36,0,0,1,.31-.13.39.39,0,0,1,.32.13A.48.48,0,0,1,234.51,395.44Zm-.06,5.72h-.74v-4.52h.74Z"/></g></g></g></svg>