<svg xmlns="http://www.w3.org/2000/svg" viewBox="0 0 1280 246.91"><defs><style>.cls-1{fill:#5f6060;opacity:0.83;}.cls-2,.cls-21{fill:#59595c;}.cls-2{opacity:0.75;}.cls-29,.cls-3,.cls-36,.cls-41,.cls-45{font-size:12px;font-family:RobotoCondensed-Regular, Roboto Condensed;}.cls-3{fill:#fff;}.cls-3,.cls-49{letter-spacing:0.05em;}.cls-4{letter-spacing:0.05em;}.cls-5{letter-spacing:0.06em;}.cls-6{letter-spacing:0.05em;}.cls-7{letter-spacing:0.03em;}.cls-8{letter-spacing:0.04em;}.cls-9{letter-spacing:0.05em;}.cls-10{letter-spacing:0.05em;}.cls-11{letter-spacing:0.07em;}.cls-12{letter-spacing:0.04em;}.cls-13{letter-spacing:0.04em;}.cls-14{letter-spacing:0.04em;}.cls-15{letter-spacing:0.05em;}.cls-16{letter-spacing:0.05em;}.cls-17{letter-spacing:0.05em;}.cls-18{letter-spacing:0.05em;}.cls-19{letter-spacing:0.05em;}.cls-20{letter-spacing:0.05em;}.cls-22{font-size:24px;fill:#cf2998;font-family:RobotoCondensed-Bold, Roboto Condensed;font-weight:700;letter-spacing:0.1em;}.cls-23{letter-spacing:0.1em;}.cls-24{letter-spacing:0.1em;}.cls-25{letter-spacing:0.03em;}.cls-26{letter-spacing:0.08em;}.cls-27{letter-spacing:0.1em;}.cls-28{letter-spacing:0.1em;}.cls-29,.cls-36,.cls-41{fill:#5e6060;font-weight:400;}.cls-29{letter-spacing:2.93em;}.cls-30{letter-spacing:0.01em;}.cls-31{letter-spacing:0.01em;}.cls-32{letter-spacing:0.01em;}.cls-33{letter-spacing:0em;}.cls-34{letter-spacing:0.01em;}.cls-35{letter-spacing:0.01em;}.cls-36{letter-spacing:2.93em;}.cls-37{letter-spacing:0.01em;}.cls-38{letter-spacing:0.01em;}.cls-39{letter-spacing:0.01em;}.cls-40{letter-spacing:0.01em;}.cls-41{letter-spacing:2.93em;}.cls-42{letter-spacing:0.01em;}.cls-43{letter-spacing:0em;}.cls-44{letter-spacing:0em;}.cls-45{fill:#404041;}.cls-143,.cls-45{letter-spacing:0.05em;}.cls-46{letter-spacing:0.05em;}.cls-47{letter-spacing:0.05em;}.cls-48{letter-spacing:0.05em;}.cls-50{letter-spacing:0.04em;}.cls-51{letter-spacing:0.05em;}.cls-52{letter-spacing:0.05em;}.cls-53{letter-spacing:0.05em;}.cls-54{letter-spacing:0.05em;}.cls-55{letter-spacing:0.05em;}.cls-56{letter-spacing:0.06em;}.cls-57{letter-spacing:0.06em;}.cls-58{letter-spacing:0.05em;}.cls-59{letter-spacing:0.04em;}.cls-60{letter-spacing:0.05em;}.cls-61{letter-spacing:0.05em;}.cls-62{letter-spacing:0.06em;}.cls-63{letter-spacing:0.04em;}.cls-64{letter-spacing:0.05em;}.cls-65{letter-spacing:0.05em;}.cls-66{letter-spacing:0.04em;}.cls-67{letter-spacing:0.05em;}.cls-68{letter-spacing:0.04em;}.cls-69{letter-spacing:0.05em;}.cls-70{letter-spacing:0.05em;}.cls-71{letter-spacing:0.05em;}.cls-72{letter-spacing:0.05em;}.cls-73{letter-spacing:0.04em;}.cls-74{letter-spacing:0.05em;}.cls-75{letter-spacing:0.06em;}.cls-76{letter-spacing:0.06em;}.cls-77{letter-spacing:0.04em;}.cls-78{letter-spacing:0.05em;}.cls-79{letter-spacing:0.05em;}.cls-80{letter-spacing:0.04em;}.cls-81{letter-spacing:0.05em;}.cls-82{letter-spacing:0.05em;}.cls-83{letter-spacing:0.05em;}.cls-84{letter-spacing:0.04em;}.cls-85{letter-spacing:0.05em;}.cls-86{letter-spacing:0.05em;}.cls-87{letter-spacing:0.04em;}.cls-88{letter-spacing:0.05em;}.cls-89{letter-spacing:0.05em;}.cls-90{letter-spacing:0.05em;}.cls-91{letter-spacing:0.06em;}.cls-92{letter-spacing:0.04em;}.cls-93{letter-spacing:0.04em;}.cls-94{letter-spacing:0.05em;}.cls-95{letter-spacing:0.04em;}.cls-96{letter-spacing:0.05em;}.cls-97{letter-spacing:0.04em;}.cls-98{letter-spacing:0.05em;}.cls-99{letter-spacing:0.05em;}.cls-100{letter-spacing:0.04em;}.cls-101{letter-spacing:0.05em;}.cls-102{letter-spacing:0.05em;}.cls-103{letter-spacing:0.04em;}.cls-104{letter-spacing:0.05em;}.cls-105{letter-spacing:0.06em;}.cls-106{letter-spacing:0.05em;}.cls-107{letter-spacing:0.04em;}.cls-108{letter-spacing:0.07em;}.cls-109{letter-spacing:0.05em;}.cls-110{letter-spacing:0.04em;}.cls-111{letter-spacing:0.04em;}.cls-112{letter-spacing:0.05em;}.cls-113{letter-spacing:0.04em;}.cls-114{letter-spacing:0.05em;}.cls-115{letter-spacing:0.06em;}.cls-116{letter-spacing:0.05em;}.cls-117{letter-spacing:0.05em;}.cls-118{letter-spacing:0.06em;}.cls-119{letter-spacing:0.05em;}.cls-120{letter-spacing:0.05em;}.cls-121{letter-spacing:0.05em;}.cls-122{letter-spacing:0.03em;}.cls-123{letter-spacing:0.05em;}.cls-124{letter-spacing:0.05em;}.cls-125{letter-spacing:0.05em;}.cls-126{letter-spacing:0.04em;}.cls-127{letter-spacing:0.05em;}.cls-128{letter-spacing:0.05em;}.cls-129{letter-spacing:0.05em;}.cls-130{letter-spacing:0.04em;}.cls-131{letter-spacing:0.05em;}.cls-132{letter-spacing:0.05em;}.cls-133{letter-spacing:0.05em;}.cls-134{letter-spacing:0.08em;}.cls-135{letter-spacing:0.04em;}.cls-136{letter-spacing:0.04em;}.cls-137{letter-spacing:0.04em;}.cls-138{letter-spacing:0.05em;}.cls-139{letter-spacing:0.04em;}.cls-140{letter-spacing:0.05em;}.cls-141{letter-spacing:0.04em;}.cls-142{letter-spacing:0.05em;}.cls-144{letter-spacing:0.04em;}.cls-145{letter-spacing:0.04em;}</style></defs><title>footer</title><g id="Layer_2" data-name="Layer 2"><g id="Home_Screen" data-name="Home Screen"><g id="Footer"><g id="Legal"><rect id="Footer_Bar" data-name="Footer Bar" class="cls-1" y="182.02" width="1280" height="64.89"/><path id="Top_Arrow" data-name="Top Arrow" class="cls-2" d="M1191.88,220.37c1.4-1.43,16.12-15.46,16.12-15.46a3.76,3.76,0,0,1,5.41,0s14.72,14,16.12,15.46a4.08,4.08,0,0,1,0,5.55c-1.49,1.53-3.58,1.64-5.41,0l-13.42-12.86-13.41,12.86c-1.84,1.65-3.92,1.54-5.41,0A4.08,4.08,0,0,1,1191.88,220.37Z"/><g id="_YOUR_LEGAL_TEXT_HERE_" data-name="[YOUR LEGAL TEXT HERE]"><text class="cls-3" transform="translate(48.74 215.07)">© <tspan class="cls-4" x="13.38" y="0">2</tspan><tspan class="cls-5" x="19.88" y="0">0</tspan><tspan class="cls-6" x="26.5" y="0">2</tspan><tspan class="cls-7" x="33.01" y="0">0</tspan><tspan x="39.33" y="0">. </tspan><tspan class="cls-8" x="46.43" y="0">A</tspan><tspan class="cls-9" x="53.86" y="0">f</tspan><tspan x="58.21" y="0">r</tspan><tspan class="cls-10" x="62.46" y="0">i</tspan><tspan class="cls-11" x="65.77" y="0">K</tspan><tspan class="cls-12" x="73.15" y="0">b</tspan><tspan class="cls-13" x="79.59" y="0">a</tspan><tspan x="85.81" y="0">y · </tspan><tspan class="cls-14" x="101.62" y="0">M</tspan><tspan class="cls-15" x="111.21" y="0">a</tspan><tspan class="cls-16" x="117.52" y="0">d</tspan><tspan class="cls-17" x="124.06" y="0">e </tspan><tspan class="cls-18" x="133.63" y="0">i</tspan><tspan x="136.93" y="0">n </tspan><tspan class="cls-8" x="146.69" y="0">A</tspan><tspan class="cls-9" x="154.12" y="0">f</tspan><tspan x="158.46" y="0">r</tspan><tspan class="cls-19" x="162.71" y="0">i</tspan><tspan class="cls-20" x="166.02" y="0">c</tspan><tspan class="cls-17" x="172.17" y="0">a ·</tspan></text></g></g><g id="_YOUR_CONTACT_INFO_HERE_" data-name="[YOUR CONTACT INFO HERE]"><path class="cls-21" d="M884.27,91.1c-1.85,1.85-4,3.62-4.85,2.77-1.21-1.21-2-2.27-4.64-.12s-.62,3.59.55,4.77c1.36,1.36,6.43.07,11.43-4.93s6.29-10.07,4.93-11.43c-1.17-1.18-2.61-3.24-4.76-.56s-1.1,3.43.12,4.65C887.9,87.09,886.13,89.24,884.27,91.1Z"/><path class="cls-21" d="M873.4,115.2l8.9,4.78a2.31,2.31,0,0,0,1.07.24,2.35,2.35,0,0,0,1.08-.24l8.9-4.78c.57-.31,1.12-1.29.06-1.29H873.34C872.28,113.91,872.82,114.89,873.4,115.2Zm20.19,2.37-9.14,4.78a2,2,0,0,1-1.08.24,2,2,0,0,1-1.07-.24c-.4-.21-8.49-4.43-9.14-4.78-.47-.24-.46,0-.46.26v8.7a1.38,1.38,0,0,0,1.17,1.14h19a1.38,1.38,0,0,0,1.18-1.14v-8.7C894.05,117.61,894.05,117.33,893.59,117.57Z"/><path class="cls-21" d="M883.72,46.4a6.79,6.79,0,0,0-6.79,6.8c0,6.48,6.79,14.94,6.79,14.94s6.79-8.46,6.79-14.94A6.79,6.79,0,0,0,883.72,46.4Zm0,10.55a3.67,3.67,0,1,1,3.67-3.67A3.67,3.67,0,0,1,883.72,57Z"/><text class="cls-22"><tspan x="870.68" y="30.7">C</tspan><tspan class="cls-23" x="886.84" y="30.7">O</tspan><tspan class="cls-24" x="903.7" y="30.7">N</tspan><tspan class="cls-25" x="920.8" y="30.7">T</tspan><tspan class="cls-26" x="934.64" y="30.7">A</tspan><tspan class="cls-27" x="950.97" y="30.7">C</tspan><tspan class="cls-28" x="967.12" y="30.7">T</tspan><tspan class="cls-29"><tspan x="870.67" y="61.7">	</tspan><tspan class="cls-30" x="908.59" y="61.7">A</tspan><tspan class="cls-31" x="915.59" y="61.7">d</tspan><tspan class="cls-32" x="921.67" y="61.7">dr</tspan><tspan class="cls-33" x="931.47" y="61.7">e</tspan><tspan class="cls-34" x="937.13" y="61.7">s</tspan><tspan class="cls-35" x="942.7" y="61.7">s</tspan></tspan><tspan class="cls-36"><tspan x="870.67" y="92.7">	</tspan><tspan class="cls-37" x="908.59" y="92.7">P</tspan><tspan class="cls-38" x="915.39" y="92.7">h</tspan><tspan class="cls-39" x="921.3" y="92.7">o</tspan><tspan class="cls-40" x="927.45" y="92.7">n</tspan><tspan class="cls-35" x="933.36" y="92.7">e</tspan></tspan><tspan class="cls-41"><tspan x="870.66" y="123.7">	</tspan><tspan class="cls-42" x="908.59" y="123.7">E</tspan><tspan class="cls-43" x="914.7" y="123.7">m</tspan><tspan class="cls-44" x="923.75" y="123.7">ai</tspan><tspan class="cls-35" x="932.33" y="123.7">l</tspan></tspan></text></g><text id="_YOUR_TEXT_HERE_" data-name="[YOUR TEXT HERE]" class="cls-45" transform="translate(49.21 18.97)">L<tspan class="cls-46" x="6.29" y="0">o</tspan><tspan class="cls-47" x="12.92" y="0">r</tspan><tspan class="cls-48" x="17.15" y="0">e</tspan><tspan class="cls-49" x="23.42" y="0">m </tspan><tspan class="cls-18" x="36.4" y="0">ip</tspan><tspan class="cls-50" x="46.19" y="0">s</tspan><tspan class="cls-51" x="52.19" y="0">u</tspan><tspan class="cls-49" x="58.58" y="0">m </tspan><tspan class="cls-52" x="71.56" y="0">d</tspan><tspan class="cls-47" x="78.1" y="0">ol</tspan><tspan class="cls-53" x="88.02" y="0">o</tspan><tspan class="cls-49" x="94.65" y="0">r </tspan><tspan class="cls-8" x="102.25" y="0">s</tspan><tspan class="cls-54" x="108.23" y="0">i</tspan><tspan class="cls-49" x="111.63" y="0">t </tspan><tspan class="cls-55" x="119.13" y="0">a</tspan><tspan x="125.45" y="0">m</tspan><tspan class="cls-56" x="135.07" y="0">e</tspan><tspan class="cls-57" x="141.39" y="0">t</tspan><tspan class="cls-49" x="145.62" y="0">, </tspan><tspan class="cls-58" x="151.92" y="0">c</tspan><tspan class="cls-53" x="158.12" y="0">o</tspan><tspan class="cls-59" x="164.75" y="0">n</tspan><tspan class="cls-60" x="171.05" y="0">s</tspan><tspan class="cls-61" x="177.08" y="0">e</tspan><tspan class="cls-62" x="183.34" y="0">c</tspan><tspan class="cls-63" x="189.65" y="0">t</tspan><tspan class="cls-56" x="193.67" y="0">e</tspan><tspan class="cls-64" x="200" y="0">t</tspan><tspan class="cls-49" x="204.1" y="0">u</tspan><tspan class="cls-48" x="210.5" y="0">e</tspan><tspan class="cls-17" x="216.77" y="0">r </tspan><tspan class="cls-65" x="224.37" y="0">a</tspan><tspan class="cls-66" x="230.68" y="0">d</tspan><tspan class="cls-18" x="237.17" y="0">i</tspan><tspan class="cls-67" x="240.48" y="0">p</tspan><tspan class="cls-68" x="246.97" y="0">i</tspan><tspan class="cls-10" x="250.2" y="0">s</tspan><tspan class="cls-69" x="256.23" y="0">c</tspan><tspan class="cls-18" x="262.37" y="0">i</tspan><tspan class="cls-70" x="265.68" y="0">n</tspan><tspan class="cls-71" x="272.09" y="0">g </tspan><tspan class="cls-72" x="281.95" y="0">e</tspan><tspan class="cls-73" x="288.19" y="0">l</tspan><tspan class="cls-74" x="291.46" y="0">i</tspan><tspan class="cls-75" x="294.87" y="0">t</tspan><tspan class="cls-71" x="299.09" y="0">, </tspan><tspan class="cls-60" x="305.39" y="0">s</tspan><tspan class="cls-76" x="311.42" y="0">e</tspan><tspan class="cls-71" x="317.71" y="0">d </tspan><tspan class="cls-66" x="327.61" y="0">d</tspan><tspan class="cls-77" x="334.1" y="0">i</tspan><tspan class="cls-78" x="337.3" y="0">a</tspan><tspan class="cls-71" x="343.62" y="0">m </tspan><tspan class="cls-16" x="356.6" y="0">n</tspan><tspan class="cls-53" x="362.99" y="0">o</tspan><tspan class="cls-79" x="369.62" y="0">n</tspan><tspan class="cls-51" x="376.01" y="0">um</tspan><tspan class="cls-80" x="392.02" y="0">m</tspan><tspan class="cls-71" x="401.52" y="0">y </tspan><tspan class="cls-66" x="410.47" y="0">n</tspan><tspan class="cls-18" x="416.81" y="0">i</tspan><tspan class="cls-81" x="420.12" y="0">b</tspan><tspan class="cls-71" x="426.68" y="0">h </tspan><tspan class="cls-82" x="436.42" y="0">e</tspan><tspan class="cls-83" x="442.67" y="0">u</tspan><tspan class="cls-84" x="449.02" y="0">i</tspan><tspan class="cls-52" x="452.25" y="0">s</tspan><tspan class="cls-85" x="458.3" y="0">m</tspan><tspan class="cls-86" x="467.92" y="0">o</tspan><tspan class="cls-17" x="474.56" y="0">d </tspan><tspan class="cls-87"><tspan x="0" y="19">t</tspan><tspan class="cls-18" x="4.05" y="19">i</tspan><tspan class="cls-49" x="7.35" y="19">n</tspan><tspan class="cls-88" x="13.76" y="19">c</tspan><tspan class="cls-89" x="19.89" y="19">i</tspan><tspan class="cls-67" x="23.21" y="19">d</tspan><tspan class="cls-51" x="29.75" y="19">u</tspan><tspan class="cls-90" x="36.14" y="19">n</tspan><tspan class="cls-17" x="42.58" y="19">t </tspan><tspan class="cls-91" x="50.07" y="19">u</tspan><tspan class="cls-17" x="56.56" y="19">t </tspan><tspan class="cls-92" x="64.06" y="19">l</tspan><tspan class="cls-93" x="67.29" y="19">a</tspan><tspan class="cls-53" x="73.58" y="19">o</tspan><tspan class="cls-47" x="80.21" y="19">r</tspan><tspan class="cls-94" x="84.44" y="19">e</tspan><tspan class="cls-56" x="90.69" y="19">e</tspan><tspan class="cls-49" x="97.01" y="19">t </tspan><tspan class="cls-52" x="104.51" y="19">d</tspan><tspan class="cls-47" x="111.04" y="19">ol</tspan><tspan class="cls-53" x="120.96" y="19">o</tspan><tspan class="cls-47" x="127.59" y="19">r</tspan><tspan class="cls-49" x="131.82" y="19">e </tspan><tspan class="cls-95" x="141.39" y="19">m</tspan><tspan class="cls-96" x="150.91" y="19">a</tspan><tspan class="cls-49" x="157.22" y="19">g</tspan><tspan class="cls-97" x="163.73" y="19">n</tspan><tspan class="cls-17" x="170.03" y="19">a </tspan><tspan class="cls-50" x="179.73" y="19">a</tspan><tspan class="cls-73" x="186.01" y="19">l</tspan><tspan class="cls-98" x="189.28" y="19">i</tspan><tspan class="cls-99" x="192.6" y="19">q</tspan><tspan class="cls-100" x="199.16" y="19">u</tspan><tspan class="cls-55" x="205.47" y="19">a</tspan><tspan class="cls-49" x="211.79" y="19">m </tspan><tspan class="cls-101" x="224.77" y="19">e</tspan><tspan class="cls-102" x="231.04" y="19">r</tspan><tspan class="cls-86" x="235.27" y="19">a</tspan><tspan class="cls-17" x="241.65" y="19">t </tspan><tspan class="cls-103" x="249.14" y="19">v</tspan><tspan class="cls-104" x="254.71" y="19">o</tspan><tspan class="cls-18" x="261.31" y="19">l</tspan><tspan class="cls-105" x="264.62" y="19">u</tspan><tspan class="cls-106" x="271.11" y="19">t</tspan><tspan class="cls-107" x="275.2" y="19">p</tspan><tspan class="cls-86" x="281.64" y="19">a</tspan><tspan class="cls-17" x="288.01" y="19">t. </tspan><tspan class="cls-108" x="299.26" y="19">U</tspan><tspan class="cls-17" x="306.81" y="19">t </tspan><tspan class="cls-104" x="314.3" y="19">w</tspan><tspan class="cls-84" x="322.68" y="19">i</tspan><tspan class="cls-8" x="325.91" y="19">s</tspan><tspan class="cls-17" x="331.89" y="19">i </tspan><tspan class="cls-109" x="338.58" y="19">a</tspan><tspan class="cls-17" x="344.89" y="19">d </tspan><tspan class="cls-110" x="354.79" y="19">m</tspan><tspan class="cls-18" x="364.36" y="19">i</tspan><tspan class="cls-66" x="367.67" y="19">n</tspan><tspan class="cls-18" x="374.01" y="19">i</tspan><tspan class="cls-17" x="377.32" y="19">m </tspan><tspan class="cls-111" x="390.3" y="19">v</tspan><tspan class="cls-112" x="395.86" y="19">e</tspan><tspan class="cls-113" x="402.13" y="19">n</tspan><tspan class="cls-77" x="408.47" y="19">i</tspan><tspan class="cls-114" x="411.68" y="19">a</tspan><tspan class="cls-115" x="418" y="19">m</tspan><tspan class="cls-71" x="427.72" y="19">, </tspan><tspan class="cls-116" x="434.03" y="19">qu</tspan><tspan class="cls-84" x="446.94" y="19">i</tspan><tspan class="cls-17" x="450.17" y="19">s </tspan><tspan class="cls-117" x="459.58" y="19">n</tspan><tspan class="cls-116" x="465.97" y="19">o</tspan><tspan class="cls-118" x="472.55" y="19">s</tspan><tspan class="cls-119" x="478.72" y="19">t</tspan><tspan class="cls-112" x="482.81" y="19">r</tspan><tspan class="cls-120" x="487.11" y="19">u</tspan><tspan class="cls-71" x="493.54" y="19">d </tspan></tspan><tspan class="cls-121"><tspan x="0" y="38">e</tspan><tspan class="cls-122" x="6.2" y="38">x</tspan><tspan class="cls-48" x="11.84" y="38">e</tspan><tspan class="cls-49" x="18.12" y="38">r</tspan><tspan class="cls-123" x="22.37" y="38">c</tspan><tspan class="cls-17" x="28.5" y="38">i </tspan><tspan class="cls-64" x="35.19" y="38">t</tspan><tspan class="cls-124" x="39.29" y="38">a</tspan><tspan class="cls-87" x="45.67" y="38">t</tspan><tspan class="cls-19" x="49.71" y="38">i</tspan><tspan class="cls-53" x="53.01" y="38">o</tspan><tspan class="cls-49" x="59.64" y="38">n </tspan><tspan class="cls-125" x="69.4" y="38">u</tspan><tspan class="cls-8" x="75.75" y="38">l</tspan><tspan class="cls-126" x="79.01" y="38">l</tspan><tspan class="cls-55" x="82.25" y="38">a</tspan><tspan class="cls-49" x="88.56" y="38">m</tspan><tspan class="cls-127" x="98.19" y="38">c</tspan><tspan class="cls-46" x="104.39" y="38">o</tspan><tspan class="cls-128" x="111.02" y="38">r</tspan><tspan class="cls-129" x="115.31" y="38">pe</tspan><tspan class="cls-17" x="128.15" y="38">r </tspan><tspan class="cls-50" x="135.75" y="38">s</tspan><tspan class="cls-130" x="141.75" y="38">u</tspan><tspan class="cls-10" x="148.07" y="38">s</tspan><tspan class="cls-88" x="154.1" y="38">c</tspan><tspan class="cls-18" x="160.23" y="38">i</tspan><tspan class="cls-131" x="163.54" y="38">p</tspan><tspan class="cls-54" x="170.04" y="38">i</tspan><tspan class="cls-49" x="173.45" y="38">t </tspan><tspan class="cls-132" x="180.94" y="38">l</tspan><tspan class="cls-53" x="184.26" y="38">o</tspan><tspan class="cls-133" x="190.89" y="38">b</tspan><tspan class="cls-53" x="197.46" y="38">o</tspan><tspan class="cls-134" x="204.09" y="38">r</tspan><tspan class="cls-87" x="208.7" y="38">t</tspan><tspan class="cls-135" x="212.74" y="38">i</tspan><tspan class="cls-49" x="215.97" y="38">s </tspan><tspan class="cls-136" x="225.39" y="38">n</tspan><tspan class="cls-84" x="231.73" y="38">i</tspan><tspan class="cls-66" x="234.95" y="38">s</tspan><tspan class="cls-17" x="240.95" y="38">l </tspan><tspan class="cls-115" x="247.65" y="38">u</tspan><tspan class="cls-17" x="254.14" y="38">t </tspan><tspan class="cls-137" x="261.64" y="38">a</tspan><tspan class="cls-73" x="267.92" y="38">l</tspan><tspan class="cls-98" x="271.19" y="38">i</tspan><tspan class="cls-116" x="274.51" y="38">qu</tspan><tspan class="cls-18" x="287.42" y="38">i</tspan><tspan class="cls-71" x="290.73" y="38">p </tspan><tspan class="cls-138" x="300.6" y="38">e</tspan><tspan class="cls-17" x="306.79" y="38">x </tspan><tspan class="cls-139" x="316.01" y="38">e</tspan><tspan class="cls-17" x="322.15" y="38">a </tspan><tspan class="cls-140" x="331.84" y="38">l</tspan><tspan class="cls-116" x="335.17" y="38">o</tspan><tspan class="cls-17" x="341.74" y="38">s </tspan><tspan class="cls-139" x="351.16" y="38">e</tspan><tspan class="cls-86" x="357.3" y="38">a</tspan><tspan class="cls-141" x="363.67" y="38">t</tspan><tspan class="cls-116" x="367.66" y="38">o</tspan><tspan class="cls-71" x="374.24" y="38">s </tspan><tspan class="cls-127" x="383.65" y="38">c</tspan><tspan class="cls-142" x="389.85" y="38">o</tspan><tspan class="cls-143" x="396.48" y="38">mm</tspan><tspan class="cls-86" x="415.72" y="38">o</tspan><tspan class="cls-52" x="422.37" y="38">d</tspan><tspan class="cls-17" x="428.91" y="38">o </tspan><tspan class="cls-112" x="438.88" y="38">c</tspan><tspan class="cls-53" x="445.07" y="38">o</tspan><tspan class="cls-144" x="451.7" y="38">n</tspan><tspan class="cls-60" x="458.01" y="38">s</tspan><tspan class="cls-76" x="464.04" y="38">e</tspan><tspan class="cls-116" x="470.32" y="38">q</tspan><tspan class="cls-145" x="476.88" y="38">u</tspan><tspan class="cls-86" x="483.19" y="38">a</tspan><tspan class="cls-17" x="489.56" y="38">t.</tspan></tspan></text></g></g></g></svg>