<svg xmlns="http://www.w3.org/2000/svg" viewBox="0 0 682.55 387.64"><defs><style>.cls-1{fill:#e2e5f4;}.cls-2{fill:#fcfbff;}.cls-3{opacity:0.3;}.cls-4{fill:#b8c2e3;}.cls-5{fill:#b3c770;}.cls-6{fill:#7c924c;}.cls-7{fill:#536e59;}.cls-8{fill:#2c363e;}.cls-9{fill:#1f223f;}.cls-10{fill:#bbc3e1;}.cls-11{fill:#b14c88;}.cls-12{fill:#89376c;}.cls-13{fill:#e4cfcd;}.cls-14{fill:#1f213c;}.cls-15{fill:#0b001c;}.cls-16,.cls-23{fill:#e1bf2f;}.cls-17{fill:#c68820;}.cls-18{fill:#f8f8f8;}.cls-19{fill:#e1be2f;}.cls-20{fill:#252046;}.cls-21{opacity:0.55;}.cls-22{fill:#eee5f5;}.cls-23{font-size:27.85px;}.cls-23,.cls-28{font-family:RobotoCondensed-Regular, Roboto Condensed;}.cls-24{letter-spacing:-0.12em;}.cls-25{font-size:50.28px;fill:#72c3e3;letter-spacing:0.01em;}.cls-25,.cls-26{font-family:Blenny-Black, Blenny;font-weight:800;}.cls-26{font-size:46.31px;fill:#b12d93;letter-spacing:0em;}.cls-27{letter-spacing:-0.04em;}.cls-28{font-size:8.55px;fill:#666;}.cls-29{letter-spacing:-0.02em;}.cls-30{letter-spacing:-0.01em;}</style></defs><title>homepage</title><g id="Layer_2" data-name="Layer 2"><g id="OBJECTS"><rect class="cls-1" width="682.55" height="387.64"/><rect class="cls-2" width="268.13" height="387.64"/><path class="cls-4" d="M563.55,329.66c-30.92,0-56.9,3.09-64.18,7.27-9.26-.49-19.27-.76-29.72-.76-12.35,0-24.08.38-34.71,1.06-10.09-3.45-33.58-5.88-60.94-5.88-36.58,0-66.23,4.33-66.23,9.66s29.65,9.67,66.23,9.67q5.28,0,10.35-.12c6,6.08,41.91,10.76,85.3,10.76,47.22,0,85.55-5.54,86.18-12.41,2.53,0,5.11.07,7.72.07,36.58,0,66.23-4.32,66.23-9.66S600.13,329.66,563.55,329.66Z"/><path class="cls-5" d="M410.46,153.28c14.22,29.85,20.33,75.55,20.33,75.55s-31.66-33.53-45.88-63.38c-7.38-15.48-5.45-26.17,1.6-29.53S403.06,137.75,410.46,153.28Z"/><path class="cls-6" d="M430.79,229.85a1,1,0,0,1-.93-.58l-32.8-68.85a1,1,0,0,1,1.84-.88l32.81,68.85a1,1,0,0,1-.48,1.37A1.19,1.19,0,0,1,430.79,229.85Z"/><path class="cls-7" d="M403.54,201.5c15.28,19.9,27,52.85,27,52.85s-28.8-19.87-44.08-39.77c-7.93-10.32-8.19-18.56-3.49-22.17S395.59,191.15,403.54,201.5Z"/><path class="cls-8" d="M430.59,255.37a1,1,0,0,1-.81-.4l-35.25-45.9a1,1,0,0,1,1.62-1.24l35.25,45.9a1,1,0,0,1-.81,1.64Z"/><rect class="cls-9" x="417.27" y="78.21" width="124.81" height="263.2" rx="15.93"/><rect class="cls-1" x="422.68" y="107.55" width="113.98" height="200.17"/><path class="cls-1" d="M495.77,94.72H474.16a1,1,0,1,1,0-2h21.61a1,1,0,1,1,0,2Z"/><circle class="cls-1" cx="465" cy="93.7" r="1.43"/><circle class="cls-1" cx="479.67" cy="323.52" r="10.02" transform="translate(-88.27 433.93) rotate(-45)"/><path class="cls-10" d="M479.67,334.35a10.84,10.84,0,1,1,10.84-10.83A10.85,10.85,0,0,1,479.67,334.35Zm0-20a9.2,9.2,0,1,0,9.2,9.2A9.21,9.21,0,0,0,479.67,314.32Z"/><rect class="cls-4" x="434.71" y="161.3" width="89.93" height="24.47" rx="2.33"/><rect class="cls-4" x="434.71" y="193.95" width="89.93" height="24.47" rx="2.33"/><rect class="cls-4" x="434.71" y="226.6" width="89.93" height="24.47" rx="2.33"/><rect class="cls-4" x="434.71" y="259.25" width="89.93" height="24.47" rx="2.33"/><polygon class="cls-2" points="469.08 125.73 490.28 125.73 487.94 107.55 471.44 107.55 469.08 125.73"/><polygon class="cls-11" points="448.04 125.73 469.08 125.73 471.44 107.55 455.06 107.55 448.04 125.73"/><polygon class="cls-2" points="426.92 125.73 448.04 125.73 455.06 107.55 438.63 107.55 426.92 125.73"/><polygon class="cls-11" points="438.63 107.55 426.92 125.73 405.79 125.73 422.45 107.55 438.63 107.55"/><polygon class="cls-11" points="511.34 125.73 490.29 125.73 487.93 107.55 504.31 107.55 511.34 125.73"/><polygon class="cls-2" points="532.46 125.73 511.34 125.73 504.31 107.55 520.75 107.55 532.46 125.73"/><polygon class="cls-11" points="520.75 107.55 532.46 125.73 553.59 125.73 536.93 107.55 520.75 107.55"/><path class="cls-12" d="M405.79,125.73v10.4a10.56,10.56,0,1,0,21.12,0v-10.4Z"/><path class="cls-12" d="M448,125.73v10.4a10.56,10.56,0,1,0,21.12,0v-10.4Z"/><path class="cls-12" d="M490.22,125.73v10.4a10.56,10.56,0,1,0,21.12,0v-10.4Z"/><path class="cls-12" d="M532.46,125.73v10.4a10.57,10.57,0,1,0,21.13,0v-10.4Z"/><path class="cls-13" d="M426.91,125.73v10.4a10.57,10.57,0,1,0,21.13,0v-10.4Z"/><path class="cls-13" d="M469.13,125.73v10.4a10.56,10.56,0,1,0,21.12,0v-10.4Z"/><path class="cls-13" d="M511.34,125.73v10.4a10.56,10.56,0,1,0,21.12,0v-10.4Z"/><path class="cls-14" d="M590.56,280a1,1,0,0,1-1-1c0-10.75-8.73-34.43-18.06-34.43s-18.07,23.68-18.07,34.43a1,1,0,1,1-2,0c0-5.7,2.34-14.79,5.69-22.1,2.46-5.37,7.6-14.38,14.43-14.38s12,9,14.42,14.38c3.35,7.31,5.69,16.4,5.69,22.1A1,1,0,0,1,590.56,280Z"/><path class="cls-11" d="M603.44,340.88H530.18a4.73,4.73,0,0,1-4.73-4.73V265.67h78Z"/><path class="cls-12" d="M547.93,278.11a2.57,2.57,0,1,1-2.57-2.56A2.57,2.57,0,0,1,547.93,278.11Z"/><path class="cls-12" d="M586.11,278.11a2.57,2.57,0,1,1-2.57-2.56A2.57,2.57,0,0,1,586.11,278.11Z"/><path class="cls-15" d="M583.54,279.14a1,1,0,0,1-1-1c0-10.75-8.73-34.43-18.06-34.43s-18.07,23.68-18.07,34.43a1,1,0,1,1-2,0c0-5.7,2.33-14.79,5.68-22.1,2.46-5.37,7.6-14.37,14.43-14.37s12,9,14.43,14.37c3.34,7.31,5.68,16.4,5.68,22.1A1,1,0,0,1,583.54,279.14Z"/><polygon class="cls-12" points="607.15 336.36 603.44 340.88 603.44 265.67 607 269.18 607.15 336.36"/><path class="cls-14" d="M395.08,259.72a1,1,0,0,1-1-1c0-10.76-8.73-34.43-18.06-34.43s-18.07,23.67-18.07,34.43a1,1,0,0,1-2.05,0c0-5.71,2.34-14.8,5.69-22.11,2.45-5.36,7.6-14.37,14.43-14.37s12,9,14.42,14.37c3.35,7.31,5.69,16.4,5.69,22.11A1,1,0,0,1,395.08,259.72Z"/><path class="cls-16" d="M408,341.11H334.71a4.74,4.74,0,0,1-4.73-4.74V245.44h78Z"/><path class="cls-17" d="M352.46,257.88a2.57,2.57,0,1,1-2.57-2.57A2.57,2.57,0,0,1,352.46,257.88Z"/><path class="cls-17" d="M390.63,257.88a2.57,2.57,0,1,1-2.56-2.57A2.57,2.57,0,0,1,390.63,257.88Z"/><path class="cls-15" d="M388.07,258.9a1,1,0,0,1-1-1c0-10.76-8.73-34.43-18.06-34.43s-18.07,23.67-18.07,34.43a1,1,0,1,1-2,0c0-5.7,2.33-14.8,5.68-22.11,2.46-5.36,7.6-14.37,14.43-14.37s12,9,14.43,14.37c3.34,7.31,5.68,16.41,5.68,22.11A1,1,0,0,1,388.07,258.9Z"/><polygon class="cls-17" points="411.68 336.59 407.97 341.11 407.97 245.44 411.53 248.95 411.68 336.59"/><path class="cls-14" d="M416.3,306.11a1,1,0,0,1-1-1c0-7-5.58-22.29-11.54-22.29-2.58,0-5.48,3.08-7.94,8.46-2.11,4.61-3.59,10.3-3.59,13.83a1,1,0,1,1-2,0c0-7.26,5.73-24.34,13.57-24.34s13.58,17.08,13.58,24.34A1,1,0,0,1,416.3,306.11Z"/><path class="cls-5" d="M424.77,345.83H377.25a3.77,3.77,0,0,1-3.77-3.77v-45.7h51.29Z"/><path class="cls-6" d="M388.26,304.55a1.69,1.69,0,1,1-1.69-1.69A1.69,1.69,0,0,1,388.26,304.55Z"/><path class="cls-6" d="M413.37,304.55a1.69,1.69,0,1,1-1.69-1.69A1.69,1.69,0,0,1,413.37,304.55Z"/><path class="cls-15" d="M411.68,305.57a1,1,0,0,1-1-1c0-7-5.58-22.3-11.53-22.3-2.59,0-5.49,3.09-7.95,8.46-2.11,4.61-3.58,10.3-3.58,13.84a1,1,0,0,1-2.05,0c0-7.26,5.73-24.34,13.58-24.34s13.58,17.08,13.58,24.34A1,1,0,0,1,411.68,305.57Z"/><polygon class="cls-6" points="427.21 342.85 424.77 345.83 424.77 296.36 427.12 298.67 427.21 342.85"/><path class="cls-7" d="M335.6,289.11c5.57,18.36,6.51,43.14,6.65,53.79a1.57,1.57,0,0,1-2.88.87c-5.79-8.93-18.76-30.07-24.32-48.43-3.78-12.45-1.12-20.25,4.56-22S331.81,276.62,335.6,289.11Z"/><path class="cls-8" d="M339.6,340.36a1,1,0,0,1-1-.72L324.5,293a1,1,0,1,1,1.95-.59L340.58,339a1,1,0,0,1-1,1.32Z"/><path class="cls-7" d="M349.46,305.59c-4.24,12.83-5.34,30.26-5.63,37.75a1.1,1.1,0,0,0,2,.66c4.24-6.18,13.74-20.83,18-33.66,2.87-8.7,1.14-14.24-2.83-15.55S352.34,296.86,349.46,305.59Z"/><path class="cls-8" d="M345.76,341.9a.86.86,0,0,1-.32,0,1,1,0,0,1-.65-1.29L355.55,308a1,1,0,0,1,1.94.64L346.73,341.2A1,1,0,0,1,345.76,341.9Z"/><path class="cls-7" d="M516.64,289.11c5.57,18.36,6.52,43.14,6.65,53.79a1.56,1.56,0,0,1-2.87.87c-5.8-8.93-18.77-30.07-24.33-48.43-3.77-12.45-1.12-20.25,4.56-22S512.86,276.62,516.64,289.11Z"/><path class="cls-8" d="M520.64,340.36a1,1,0,0,1-1-.72L505.54,293a1,1,0,0,1,.68-1.28,1,1,0,0,1,1.28.69L521.62,339a1,1,0,0,1-1,1.32Z"/><path class="cls-7" d="M549.7,308.84c-8,10.89-14.44,27.12-17,34.16a1.1,1.1,0,0,0,1.71,1.25c5.94-4.57,19.51-15.57,27.51-26.45,5.42-7.39,5.49-13.19,2.12-15.66S555.14,301.43,549.7,308.84Z"/><path class="cls-8" d="M535.27,342.28a1.06,1.06,0,0,1-.61-.2,1,1,0,0,1-.22-1.43L554.75,313a1,1,0,0,1,1.43-.22,1,1,0,0,1,.22,1.43l-20.31,27.64A1,1,0,0,1,535.27,342.28Z"/><path class="cls-5" d="M552.75,275.29c-3.88,25.23-17.08,55.55-22.9,68.06a2,2,0,0,1-3.7-.56c-1.78-13.69-5.26-46.58-1.37-71.81,2.6-17,10.21-24.7,17.93-23.51S555.36,258.29,552.75,275.29Z"/><path class="cls-6" d="M528.58,340.32h-.15a1,1,0,0,1-.86-1.17l10.08-65.48a1,1,0,0,1,1.16-.86,1,1,0,0,1,.86,1.17l-10.08,65.48A1,1,0,0,1,528.58,340.32Z"/><ellipse class="cls-11" cx="337.8" cy="192.52" rx="14.65" ry="16.29"/><path class="cls-18" d="M340.05,191.07c-.71,0-.94.25-.94.55,0,1.27,3.91-.14,3.91,3,0,1.78-1.71,3.68-5.51,3.68-4.12,0-5.24-1.45-5.24-2.74a2.12,2.12,0,0,1,1.12-1.94,4.89,4.89,0,0,0,2.6.89c.57,0,.8-.21.8-.5,0-1-3.54,0-3.54-3.13,0-2.3,1.71-4.1,5.5-4.1,3.28,0,4.92.89,4.92,2.92a2.17,2.17,0,0,1-1.17,2A5.73,5.73,0,0,0,340.05,191.07Zm-4.64,8.15a4.19,4.19,0,0,1,2-.45c.79,0,1.47.21,1.47.84s-.31,1-.31,1.88a2.68,2.68,0,0,1-1.64.44c-1.33,0-1.63-.42-1.63-1.07C335.27,200.39,335.41,199.83,335.41,199.22Zm5.13-13.29a6.89,6.89,0,0,1-2.11.38c-.85,0-1.52-.24-1.52-.94,0-.33.09-.68.09-1.17a4.53,4.53,0,0,0-.07-.75,3.39,3.39,0,0,1,2.3-.66c1.21,0,1.89.47,1.89,1.08a1.68,1.68,0,0,1-.11.54Z"/><ellipse class="cls-16" cx="390.51" cy="95.14" rx="14.65" ry="16.29"/><path class="cls-18" d="M399.74,93a.76.76,0,0,1-.53-.2,13.47,13.47,0,0,0-17.42-.19.82.82,0,1,1-1-1.26,15.08,15.08,0,0,1,19.53.22.81.81,0,0,1,.08,1.15A.8.8,0,0,1,399.74,93Z"/><path class="cls-18" d="M397.43,95a.78.78,0,0,1-.46-.14,11.79,11.79,0,0,0-13.17,0,.82.82,0,1,1-.92-1.35,13.39,13.39,0,0,1,15,0,.81.81,0,0,1-.46,1.49Z"/><path class="cls-18" d="M395.41,97.3a.84.84,0,0,1-.37-.09,10,10,0,0,0-4.65-1.12,10.13,10.13,0,0,0-4.38,1,.81.81,0,0,1-1.09-.38.81.81,0,0,1,.38-1.09,11.81,11.81,0,0,1,10.49.16.82.82,0,0,1-.38,1.54Z"/><path class="cls-18" d="M390.54,102.8a2.27,2.27,0,1,1,2.26-2.26A2.27,2.27,0,0,1,390.54,102.8Zm0-2.89a.63.63,0,1,0,.62.63A.63.63,0,0,0,390.54,99.91Z"/><ellipse class="cls-11" cx="586.11" cy="124.83" rx="14.65" ry="16.29"/><path class="cls-18" d="M595.84,119.27v-.06a.13.13,0,0,1,0-.06s0,0,0-.06,0,0,0-.06,0,0,0,0l0,0a.1.1,0,0,0,0-.05l0,0,0,0,0,0-.05,0,0,0-.06,0,0,0h-15l-.51-1.77a0,0,0,0,0,0,0,.14.14,0,0,0,0-.07l0-.05,0,0,0,0s0,0,0,0l0,0,0,0-.05,0,0,0-.06,0h-3.5a.62.62,0,0,0,0,1.23h2.88l2.68,9.4a1.8,1.8,0,0,0,.77,3.38l.12,0H593.1a.62.62,0,0,0,.62-.62.61.61,0,0,0-.62-.61H582.36a.6.6,0,0,1,0-1.19H592.8a.51.51,0,0,0,.17,0h0a.52.52,0,0,0,.15-.07l0,0a.57.57,0,0,0,.11-.11l0,0a.8.8,0,0,0,.08-.16v0l2.43-8.16a0,0,0,0,0,0,0s0,0,0-.06S595.84,119.29,595.84,119.27Zm-4.88.59h3.44l-.45,1.51h-3.17Zm-.32,2.74h3l-.45,1.51h-2.67Zm-9.51-1.23-.43-1.51H584l.17,1.51Zm.78,2.74-.43-1.51h2.83l.18,1.51Zm.77,2.68-.42-1.45h2.37l.17,1.45Zm6.24,0H586l-.17-1.45h3.23Zm.31-2.68h-3.51l-.17-1.51h3.86Zm.32-2.74h-4.14l-.17-1.51h4.48Zm.78,4h2.44l-.43,1.45h-2.18Z"/><path class="cls-18" d="M584.28,134.23a1.8,1.8,0,1,1,1.81-1.8A1.81,1.81,0,0,1,584.28,134.23Zm0-2.38a.58.58,0,1,0,.58.58A.58.58,0,0,0,584.28,131.85Z"/><path class="cls-18" d="M590.29,134.23a1.8,1.8,0,1,1,1.81-1.8A1.81,1.81,0,0,1,590.29,134.23Zm0-2.38a.58.58,0,0,0,0,1.16.58.58,0,1,0,0-1.16Z"/><rect class="cls-19" x="510.25" y="151.21" width="113.31" height="72.13" rx="4.25"/><rect class="cls-20" x="510.25" y="158.92" width="113.31" height="17.03"/><rect class="cls-1" x="515.18" y="178.76" width="103.73" height="11.82"/><rect class="cls-1" x="519.43" y="195.36" width="95.25" height="1.82"/><rect class="cls-1" x="519.43" y="198.47" width="95.25" height="1.82"/><rect class="cls-1" x="519.43" y="201.58" width="62.07" height="1.82"/><rect class="cls-1" x="519.43" y="207.8" width="95.25" height="1.82"/><rect class="cls-1" x="519.43" y="210.92" width="95.25" height="1.82"/><rect class="cls-1" x="519.43" y="214.03" width="28.52" height="1.82"/><rect class="cls-9" x="510.25" y="158.92" width="113.31" height="17.03"/><g class="cls-21"><polygon class="cls-22" points="607.54 151.21 510.25 216.32 510.25 212.74 602.18 151.21 607.54 151.21"/></g><g class="cls-21"><polygon class="cls-22" points="623.53 171.97 546.77 223.34 541.42 223.34 623.55 168.37 623.53 171.97"/></g><g class="cls-21"><polygon class="cls-22" points="590.86 151.21 510.25 205.16 510.25 197.91 580.02 151.21 590.86 151.21"/></g><text class="cls-23" transform="translate(87.79 178.76)">PROUD<tspan class="cls-24" x="78.47" y="0">L</tspan><tspan x="88.45" y="0">Y</tspan><tspan x="1.41" y="26.29">AFRICAN</tspan></text><text class="cls-25" transform="translate(27.17 90.32)">AfriK</text><text class="cls-26" transform="translate(164.67 90.5)">b<tspan class="cls-27" x="28.71" y="0">a</tspan><tspan x="54.92" y="0">y</tspan></text><text class="cls-28" transform="translate(74.72 313.7)">Lorem ipsum dolor sit amet, consecte<tspan x="127.06" y="0">-</tspan><tspan x="-1.3" y="10.26">tuer adipiscing elit, sed diam nonummy </tspan><tspan x="-2.54" y="20.52">nibh euismod tincidunt ut laoreet dolore </tspan><tspan x="3.07" y="30.78">magna aliquam e</tspan><tspan class="cls-29" x="60.91" y="30.78">r</tspan><tspan x="63.34" y="30.78">at </tspan><tspan class="cls-30" x="71.92" y="30.78">v</tspan><tspan x="75.51" y="30.78">olutpat. Ut wisi </tspan></text></g></g></svg>