<svg xmlns="http://www.w3.org/2000/svg" viewBox="0 0 311.63 68.77"><defs><style>.cls-1{fill:#cf2998;}.cls-2{fill:#1fc5e6;}</style></defs><title>afriKbayLogo</title><g id="Layer_2" data-name="Layer 2"><g id="Layer_1-2" data-name="Layer 1"><path class="cls-1" d="M23.64,40.93H21l2,7.9a10.94,10.94,0,0,1,.42,2.26q0,1.77-2.19,1.77H2.89a3.13,3.13,0,0,1-2.15-.67A2.41,2.41,0,0,1,0,50.32q0-1.64,3.25-9.88t11-26.33a4.52,4.52,0,0,0,.42-1.76,3.47,3.47,0,0,0-.6-2,8.34,8.34,0,0,0-2.22-1.9c-.48-.28-.71-.59-.71-.92V6.63c0-.47.28-.7.85-.7H28.37a6.92,6.92,0,0,1,3.78.92,5.77,5.77,0,0,1,2.22,3L48,45.66a16.22,16.22,0,0,1,1.34,4.94A2,2,0,0,1,47,52.86H29.29a3,3,0,0,1-2.16-.64A5.61,5.61,0,0,1,26,49.68Zm-3.46-3.32h2.61l-4.94-19a1.24,1.24,0,0,0-.91-.35,1.28,1.28,0,0,0-.92.32,1,1,0,0,0-.35.81,3,3,0,0,0,.07.63,6.92,6.92,0,0,0,.21.85Z"/><path class="cls-1" d="M51.94,17V13.55a12.35,12.35,0,0,1,4.3-9.85Q60.55,0,67.68,0a16.39,16.39,0,0,1,9.17,2.33A7,7,0,0,1,80.38,8.4a5.83,5.83,0,0,1-2.58,5,11.76,11.76,0,0,1-7,1.83,11.24,11.24,0,0,1-6.49-1.62A5.14,5.14,0,0,1,62,9.17a4.26,4.26,0,0,1,1.55-3.42,6.4,6.4,0,0,1,4.24-1.3A.67.67,0,0,0,68,4.09a1.7,1.7,0,0,0,0-.35c0-.66-.49-1-1.48-1a6.42,6.42,0,0,0-4.7,1.94,6.42,6.42,0,0,0-1.94,4.7q0,5.15,6.36,7.62h9.59c.57,0,.85.23.85.7V19c0,.47-.28.71-.85.71h-7a3.48,3.48,0,0,1,1,1.3,5.43,5.43,0,0,1,.29,2V50.6a2.4,2.4,0,0,1-.53,1.73,2.64,2.64,0,0,1-1.87.53H54.34a2.61,2.61,0,0,1-1.87-.53,2.4,2.4,0,0,1-.53-1.73V19.69H47.21c-.56,0-.85-.24-.85-.71V17.71c0-.47.29-.7.85-.7Z"/><path class="cls-1" d="M78.47,17q6.07,0,8.26,3.6a13.14,13.14,0,0,1,4.59-3.36,14.82,14.82,0,0,1,5.85-1.09A12.61,12.61,0,0,1,105.64,19a9.05,9.05,0,0,1,3.32,7.2,7.44,7.44,0,0,1-2.68,6,10.27,10.27,0,0,1-6.92,2.3,10.59,10.59,0,0,1-6.81-2.12A6.59,6.59,0,0,1,89.91,27a5.88,5.88,0,0,1,1.9-4.52,6.9,6.9,0,0,1,4.87-1.76,1.38,1.38,0,0,0,.21-.71c0-.66-.49-1-1.48-1a7.15,7.15,0,0,0-5.36,2.37A7.9,7.9,0,0,0,87.79,27a8.13,8.13,0,0,0,1.59,5,10.73,10.73,0,0,0,4.55,3.43,2.69,2.69,0,0,1,1.3,1,3.6,3.6,0,0,1,.32,1.8V50.6c0,1.5-.8,2.26-2.4,2.26H78.83a2,2,0,0,1-2.19-2.26V25.69a8.11,8.11,0,0,0-.71-3.78,6.74,6.74,0,0,0-2.61-2.43,1.76,1.76,0,0,1-.6-.46.9.9,0,0,1-.1-.46v-.85c0-.47.28-.7.84-.7Z"/><path class="cls-1" d="M127.52,17a2.58,2.58,0,0,1,1.87.53,2.39,2.39,0,0,1,.53,1.73V42.2a4.14,4.14,0,0,0,.21,1.62.73.73,0,0,0,.71.43.91.91,0,0,0,.88-.5,10.16,10.16,0,0,0,.53-2.25,5.41,5.41,0,0,1,.28-1.45.57.57,0,0,1,.56-.25h1.2a.62.62,0,0,1,.6.5,5.46,5.46,0,0,1,.18,1.69c0,3.76-1,6.66-3,8.68s-4.92,3-8.68,3-6.42-1-8.37-3.07-2.93-5-2.93-8.78V25.69a8.13,8.13,0,0,0-.7-3.78,6.74,6.74,0,0,0-2.61-2.43,1.76,1.76,0,0,1-.6-.46.89.89,0,0,1-.11-.46v-.85c0-.47.28-.7.85-.7ZM111.29,7.13a6.08,6.08,0,0,1,2.47-5.08A10.58,10.58,0,0,1,120.39.14a10.74,10.74,0,0,1,6.67,1.91,6.06,6.06,0,0,1,2.51,5.08,6,6,0,0,1-2.51,5,10.74,10.74,0,0,1-6.67,1.9,10.69,10.69,0,0,1-6.63-1.87A6,6,0,0,1,111.29,7.13Z"/><path class="cls-1" d="M150.81,5.93a7.42,7.42,0,0,1,7.41,5l6.07,15.31a1.77,1.77,0,0,0,1.12.28,1,1,0,0,0,.78-.31,1.09,1.09,0,0,0,.28-.74,8.89,8.89,0,0,0-.77-2.62L160.12,8.75a4.42,4.42,0,0,1-.35-1.41V6.85A1,1,0,0,1,160,6.1a1.17,1.17,0,0,1,.71-.17h19.9c1.83,0,2.75.77,2.75,2.33a4.78,4.78,0,0,1-.81,2.15q-.81,1.38-4.41,6.24L170,27.73q5.79.29,8.89,3.32A11.11,11.11,0,0,1,182,39.38v5.5a6.72,6.72,0,0,0,.63,3.32,7.24,7.24,0,0,0,2.69,2.19,2,2,0,0,1,.6.46.86.86,0,0,1,.1.45v.85c0,.47-.28.71-.85.71H163.86a2.4,2.4,0,0,1-1.8-.57,2.75,2.75,0,0,1-.53-1.9V29.57a2.1,2.1,0,0,0-.35-1.27,1.15,1.15,0,0,0-1-.5,1.56,1.56,0,0,0-1.34.57v22a2.7,2.7,0,0,1-.53,1.9,2.37,2.37,0,0,1-1.8.57H142.27a2.37,2.37,0,0,1-1.8-.57,2.75,2.75,0,0,1-.53-1.9V14a8.78,8.78,0,0,0-.28-2.57,3.72,3.72,0,0,0-1-1.48,18.66,18.66,0,0,0-2.4-1.8.7.7,0,0,1-.35-.64V6.63c0-.47.28-.7.84-.7Z"/><path class="cls-2" d="M195.79,14.37a7.52,7.52,0,0,0-.64-3.48,6.29,6.29,0,0,0-2.41-2.24,1.68,1.68,0,0,1-.55-.42.78.78,0,0,1-.1-.43V7c0-.43.26-.65.78-.65h16.84a2.44,2.44,0,0,1,1.72.49,2.22,2.22,0,0,1,.49,1.59V22a10.08,10.08,0,0,1,7.47-2.73,10.77,10.77,0,0,1,9.1,4.39q3.31,4.38,3.32,12.05,0,8.72-4.52,13.43t-12.91,4.71a20.05,20.05,0,0,1-7.63-1.27,17.46,17.46,0,0,1-5.95-4.26q-.53,0-.81.75a28.9,28.9,0,0,0-.88,3.22,1,1,0,0,1-.26.62,1.08,1.08,0,0,1-.65.16h-1.62a.71.71,0,0,1-.62-.23,1.43,1.43,0,0,1-.17-.81Zm18.46,12.22Q214.25,25,213,25a1.27,1.27,0,0,0-1.1.52V50.31a1.27,1.27,0,0,0,1.1.52q1.23,0,1.23-1.56Z"/><path class="cls-2" d="M262.48,53.89q-6.56,0-9.36-5.4a10.15,10.15,0,0,1-3.67,4.1,10.35,10.35,0,0,1-5.36,1.3,11.15,11.15,0,0,1-7.22-2.21,7.14,7.14,0,0,1-2.73-5.85,6.2,6.2,0,0,1,2.25-5c1.49-1.23,3.8-2.07,6.92-2.5q12-1.56,12-9a7.2,7.2,0,0,0-2.08-5.16,6.58,6.58,0,0,0-4.94-2.18c-.91,0-1.37.3-1.37.91a1.26,1.26,0,0,0,.2.65,6.34,6.34,0,0,1,4.48,1.62,5.43,5.43,0,0,1,1.76,4.16,6,6,0,0,1-2.5,4.94,10.13,10.13,0,0,1-6.41,2,9.43,9.43,0,0,1-6.3-2,6.51,6.51,0,0,1-2.34-5.23q0-4.35,4.22-7t11.18-2.63q8.33,0,12.65,4t4.32,11.83v8.12a3.86,3.86,0,0,0,.19,1.5.68.68,0,0,0,.65.39.88.88,0,0,0,.85-.52,7.55,7.55,0,0,0,.45-2,5.45,5.45,0,0,1,.26-1.33.55.55,0,0,1,.52-.23h1.11a.58.58,0,0,1,.55.46,4.81,4.81,0,0,1,.16,1.49q0,5.2-2.69,8T262.48,53.89ZM252,39.85a1.23,1.23,0,0,0-1-.52c-.74,0-1.11.43-1.11,1.3v4.16c0,.87.37,1.3,1.11,1.3a1.23,1.23,0,0,0,1-.52Z"/><path class="cls-2" d="M271.58,25.74a5,5,0,0,0-1.07-1.82,10.66,10.66,0,0,0-2.05-1.56c-.43-.26-.65-.54-.65-.84v-.78c0-.43.26-.65.78-.65h10.14a23.19,23.19,0,0,1,6.54.68,6.4,6.4,0,0,1,3.31,2.37,19.78,19.78,0,0,1,2.31,5L297.13,47a1.06,1.06,0,0,0,.78.32c.65,0,1-.36,1-1.1a7.58,7.58,0,0,0-.52-2.15L292.51,26.2A11.72,11.72,0,0,0,291,22.82c-.39-.48-.64-.79-.75-.94a1,1,0,0,1-.16-.56v-.58c0-.43.26-.65.78-.65h18.39c1.56,0,2.34.56,2.34,1.69s-1.1,4.59-3.31,10.66-5.22,13.78-9,23.14a39.54,39.54,0,0,1-4.09,8,12.2,12.2,0,0,1-4.45,4,14.83,14.83,0,0,1-13.52-.94,6.66,6.66,0,0,1-3-5.66,6,6,0,0,1,2.4-4.94,9.89,9.89,0,0,1,6.25-1.88,9.38,9.38,0,0,1,5.84,1.72A5.34,5.34,0,0,1,291,60.32a3.92,3.92,0,0,1-1.4,3.22,6.05,6.05,0,0,1-3.93,1.14,1.24,1.24,0,0,0-.13.58c0,.61.5.91,1.49.91a5.68,5.68,0,0,0,4.23-1.72A5.91,5.91,0,0,0,293,60.13a6.56,6.56,0,0,0-2.15-5,12.07,12.07,0,0,0-6.24-2.7,6.44,6.44,0,0,1-3.05-1,7.41,7.41,0,0,1-1.5-2.86Z"/></g></g></svg>